<svg id="Layer_1" data-name="Layer 1" xmlns="http://www.w3.org/2000/svg" viewBox="0 0 852.37 1000"><defs><style>.cls-1,.cls-12{fill:#f48888;}.cls-1,.cls-2,.cls-3{fill-rule:evenodd;}.cls-2,.cls-9{fill:#d6d66f;}.cls-3,.cls-8{fill:#86b8e3;}.cls-4{fill:#e0da1e;}.cls-5{fill:#1c4c9b;}.cls-6{fill:#dd3e3f;}.cls-7{fill:#d8d8d8;}.cls-10{fill:#e2e2e2;}.cls-11{fill:#cfcfce;}</style></defs><g id="Layer_2" data-name="Layer 2"><g id="Layer_15" data-name="Layer 15"><path class="cls-1" d="M423.31,557.85a1.87,1.87,0,0,0-.23.3l0-.14Z"/><path class="cls-1" d="M519.19,581.69l-2,9.66-7.4,5.46-6.62,14-7.88,6.53-8.1,6.71-3.3,5.43L481.74,633h-7l-.45,1.23-1.11,3.06-6.24-.28-2.33-.11-3,2-2.47,1.65.66-1a186.66,186.66,0,0,0,21.44-44.27c1.18-4.74,3-8.88,3.55-13.62H494c-4.13-6.56-8.85-9.07-14.29-10.17l.44,0,9.35,2.73,4.82,7.48,2.14,3.32.83,1.28,3.61-4.6Z"/><polygon class="cls-1" points="483.69 637.32 472.78 640.83 468.5 654.07 476.29 660.69 487.98 648.62 488.76 640.05 483.69 637.32"/><path class="cls-1" d="M550.6,695.35l-2.63,16-4.43,5.11-.6.68-1.83,2.12L537.84,723c-2.34-6.23-3.12-18.7-2.34-25.32l6-7.38,3.66-4.5v9.53Z"/><polygon class="cls-1" points="523.82 716.79 521.87 691.08 530.05 653.29 542.13 640.83 542.51 629.92 532.39 622.13 526.15 626.02 517.58 621.74 507.06 629.14 507.06 641.61 499.27 653.68 501.61 671.6 494.6 686.79 473.56 692.25 467.72 700.43 471.62 721.08 480.57 722.63 495.77 732.37 509.4 733.15 509.79 748.34 519.92 753.8 532 746.4 532.39 734.32 523.82 716.79"/><polygon class="cls-1" points="557.32 738.22 561.6 741.72 560.43 749.51 549.92 753.8 541.35 747.57 545.24 739.77 557.32 738.22"/><path class="cls-1" d="M614.58,696.92l-5.06,9-19.87,9-15,1-1.72.12,1.17-6.23-6.63-9,1.95-2.73.15-.21,1.81-2.53,1.48-2.08c-.42.7-.82,1.4-1.2,2.08h42.82Z"/><path class="cls-1" d="M591.72,504.74c-1,.42-2,.91-3,1.43l.12-2.86Z"/><path class="cls-1" d="M689.38,609.66l-2.87-1.28-4.15-1.84-2.47,2.79-.64.72c-1.59-1.85-10.54-2.45-17.1-2.76-3.1-.15-5.67-.24-6.67-.36l-3.89-9.35-6.39-3.88V501.07l2.88.29c5.46,9.35,14,25.32,23.38,31.17-.77,1.43-1.08,4.1-1.11,7.32-.08,8.18,1.61,19.93,1.88,23.84l-.77,19.09L675,586l3.82,3.41,3,8.41,1.3,3.67,3.23,4.23Z"/><path class="cls-1" d="M662.89,661.86,661.72,672l-9.46,2.53h0l-2.22.59-2.12-2.8h0l-2.7-3.55V637.82l6,4.17Z"/><polygon class="cls-1" points="694.83 626.02 700.68 624.46 696.78 620.18 691.72 620.96 694.83 626.02"/><polygon class="cls-1" points="696.78 638.49 688.6 633.42 688.99 640.83 693.66 643.94 696.78 638.49"/></g><g id="Layer_10" data-name="Layer 10"><polygon class="cls-2" points="659.38 678.61 666.01 690.69 666.39 700.82 657.05 690.3 659.38 678.61"/><polygon class="cls-2" points="621.6 731.98 633.28 741.72 631.34 753.41 621.6 747.18 618.87 739 621.6 731.98"/><polygon class="cls-2" points="694.44 703.15 697.56 687.96 688.6 677.05 688.21 664.59 692.88 661.47 689.38 654.07 682.76 656.8 680.42 671.6 687.82 687.96 685.87 696.14 688.6 702.38 694.44 703.15"/><polygon class="cls-2" points="708.86 707.44 707.3 714.84 713.14 721.08 715.48 712.89 708.86 707.44"/><path class="cls-2" d="M718.21,677.83c-.78,4.29-2.73,16.37-5.07,19.87l6.62,8.57,9.35-3.5a142.1,142.1,0,0,0-10.9-24.94Z"/><path class="cls-2" d="M458.76,911.18l-14-14.8,9-18.7,3.89-19.09-4.28-9.74,12.07-14.41,12.86-3.51,9.74-9.74,12.46,3.9,18.7-3.9-5.84-10.91,6.23-12.07,15.19-6.62,7.8-11.69L553,778.73,571,793.53l.78,22.21-13.63,21,11.68-11.68c7.8-.78,21.43-7,28.05-10.91l7-22.59,14-5.85,6.62,14.81,8.18-3.9,1.56-10.52-5.45-3.89,6.62-26.1c5.84,1.94,18.31,7.4,22.59,12.07L662.5,762V745.23l4.67-.78,10.13,10.91c2-7-3.89-29.22-5.45-36.23l.39-14.81c3.12.78,11.69,3.12,14.8,1.56l2.73,10.91c8.18,6.23,24.54,19.87,31.16,27.66l8.57-7.79-.39,10.13,9.74,14.41V778l-9-1.56-1.94,7,7.79,9.74,5.45.39c-1.17,5.07-.78,18.7-.39,24.16l4.68-7.8c1.55,7.41,2.33,22.6,1.94,30,3.9,5.45,11.69,17.53,15.2,23.37L765,884.69l-6.62,17.92-5.45-.39.39,8.18-4.68-8.57-7.4,1.17-2.34,7.79,4.68,19.48c-.78,5.84-1.95,18.7-1.95,24.15-5.84-10.91-12.47-29.22-10.52-41.68l-6.23-10.13-3.12-13.25-9.35-13.24-9,5.45c-3.89,7-19.08,31.17-19.08,39.35L696,929.49c2.34,6.23,8.57,21,13.25,26.1l-.78,13.63c-5.07,6.63-19.87,27.27-27.66,30.78-3.9-3.12-7.4-13.63-8.57-17.92l4.67-7.79-4.28-5.45L666,973.9l-1.56,7.4-10.91,6.23-13.63-5.84-11.69-10.52h-14.8L601,956.76l-2.34-10.91-9.35-12.46L592,925.2l-1.56-10.51-6.23-7.41,5.84-7.79-.78-7,5.46-2.73L606.4,894l-10.52-10.52-2.72-11.3-12.47-10.51-11.3-2.34-12.46-10.91-6.23-.39-5.46,5.84,2.73,5.85-4.29,5.84,7,10.13c-4.68.78-12.47-6.23-16-8.57l-7,1.17,3.51-8.18-6.62-2.34-5.07,4.29-1.17,12.07-6.62-4.28-6.23,3.5-4.29-3.89L504,855.86l-9-8.57-7.4,3.51-7.4,16.36-7.8,6.62c-2.33,7-10.51,31.17-13.63,37.4Z"/><path class="cls-2" d="M438.11,927.93l.39,6.62,7.79,12.08,7.8,2.34,16.75-15.2L472,929.1c-4.28-1.17-12.07-5.45-15.58-8.18l-6.62,5.84-11.69,1.17Z"/></g><g id="Layer_3" data-name="Layer 3"><polygon class="cls-3" points="338.78 47.14 355.53 47.14 345.01 52.98 338.78 47.14"/><polygon class="cls-3" points="330.2 18.31 339.17 26.88 326.7 29.22 330.2 18.31"/><polygon class="cls-3" points="358.25 0 348.13 7.4 356.31 14.8 358.25 0"/><path class="cls-3" d="M387.08,33.11,378.9,43.24l7.79,6.23,5.46-9.73C391.76,39.74,386.69,33.11,387.08,33.11Z"/><path class="cls-3" d="M323.6,382.92a0,0,0,0,0,0,0h0Z"/><path class="cls-3" d="M323.72,407l-.14-.25c0-.13,0-.26.05-.39Z"/><path class="cls-3" d="M429.15,204.52,421,223.61l3.89,16-2.74,4.51-2.95,4.84L414,257.5l-1.17-6.62,1.62-3.69,2.66-6.05a10,10,0,0,0-1.83.79c-3.63,1.93-8.95,6.53-14,11.25-5.44,5.07-10.57,10.28-13,12.5l-4.68,12.08L384.86,290l.27,2.54-6.62,10.13-2.13,14.86-.21,1.5.65.54,6.36,5.3.88,2.29,3.8,9.82,1.94,5,8.57,9.74-3.3,4.72-.71,1A113.22,113.22,0,0,0,369.94,355a140,140,0,0,0-25.74,2.2l1.19-1.5L344,354.62l-10.25-7.52-14.12-1.53-.3,0-.39,8.18,3.25,3.42,4.16,4.37-.54.71h0c-2.92,1-5.77,2.16-8.55,3.36-2.22,1-4.38,2-6.47,3l-2,1h0l-3.48-4.55-8.12-10.58-.34-11.68-.05-1.57-2.63-.94-2.82-1-4.68,3.89-5.84-4.28-.14-8.38-.16-9.93s0,0,0,0l-.09-5.81-7.21-13-2.92-5.27-4.68-19.09,1.32-2.53,3.36-6.43-1.87-3.75-.47-.93-.89,0-6.9-.35-3.51-14.41.25-2.06,1.27-10.69.43-3.61,5.5,6.69,3.46,4.21,11.69,1.95,9.74-5.45V231.4l-.54-1.14-7.19-15.18-2.79-5.89c11.69-26.88,19.09-64.27,9.74-92.71l8-15.74,2.26-4.46,3.39-6.68,1-6.22,1.36-8.58,10.29-3.57,2.33-.81,6.47-2.25,25.32,4.68,6.93,7.91,4,4.55,9.74,6.24,1.72-3.26L372.09,86l.57-1.08h18.7l9-7.79.78-6.23,6.23-2.34,8.57,11.69L415.21,89l-.08,1L412.48,93,407.33,99l-.2,1.91-2.52,24.19,2.18,3.72,9.89,16.93.07,0,7.72,2.7.36,1.41,3.93,15.34,4.32,5.34,2.3,2.84Z"/><path class="cls-3" d="M551.07,484.89c-.56.19-1.12.41-1.68.62l1.69-.51Zm-5.91,1.77v-18.8h-2.65l0-1.22.34-7.74-1.41-3.38c-3.59-8.81-9.6-24.5-10.28-31.29l6.63-4.28,3,1.75,3.64,2.14.7-.11V413.21c-2.64-1.76-5.18-3.26-6.54-4.17l-16-.78-7.4-12.86-5.84,4.68.78,12.85-9,5.85-1.11-1.18-.08-.09-5-5.36,1.3-11.8.25-2.22-7.79-15.58-16.61-10.43-3.26-2-12.85.39-14.87,11.64A116.08,116.08,0,0,1,457,400c1.37,1.9,2.7,3.84,4,5.84h0l4,.89,2.58,2.59,0,0,5.17,5.17.08,0,8.49,4.25,7.37,13.06,1.2,2.13L499,437.3,509,441l5.45,12.47v12.81h15.9v11.79l9,10.46,5.77-1.74.68-.2C545.62,486.61,545.39,486.64,545.16,486.66Z"/><polygon class="cls-3" points="405.78 326.45 412.4 344.37 410.45 350.21 412.79 359.17 421.75 350.6 423.31 330.35 429.93 323.72 421.36 317.49 405.78 326.45"/><path class="cls-3" d="M380.59,465.67H335.28l-.4-.54-7-2.74-1.95-.76-.35-1.6-3.16-14.37-7.77.34-1.19.05-2.73-6.24,3.9-2,.63-.32L322,434l15.19,5.84,16-3.89,11,9.74,12.89,11.44h0A69.08,69.08,0,0,1,380.59,465.67Z"/><polygon class="cls-3" points="388.29 514.21 388.29 525.16 385.85 527.21 385.84 527.22 382.82 529.76 378.12 533.7 367.21 531.75 354.35 515.78 354.3 514.21 388.29 514.21"/><polygon class="cls-3" points="502.73 466.26 493.69 466.26 493.82 463.58 498.88 462.41 502.73 466.26"/><path class="cls-3" d="M545.16,503.93v7.95c-3.44-3.68-6.81-7.82-7.71-10.52Z"/><path class="cls-3" d="M545.16,521.93v19.93l-8.88-11.28-.19,0-6,.73-3.52.42-1.24,2h-12l5.44-4.72c-.1-.26-.21-.54-.31-.83a56.48,56.48,0,0,1-2.2-11c-.15-1.21-.27-2.42-.36-3.62h14.48v-1.54l3.22,3,6.59,6.15A13.2,13.2,0,0,1,545.16,521.93Z"/><path class="cls-3" d="M307.82,548.24a7.4,7.4,0,0,0,1.82-1.16l-1.25,1.42Z"/><path class="cls-3" d="M308.8,534.33H278.89c-1-1.84-2-3.66-2.73-5.25-.34-.72-.63-1.39-.89-2h0l4.29-5.45,6.09.9,4.43.66,6,6.92,1.77,2,7.74,1.55Z"/><path class="cls-3" d="M281,562.91a11.47,11.47,0,0,1-2.22-1.55Z"/><path class="cls-3" d="M172,740.55l.78-.76V766l-4.29,6.55L154.12,778l-6.55,6.84-2,2.12-2.22.39-6.74,1.17-5.11,4.18L123.73,799l-2.15-4.33-.18-.35c1.41-4.59,15.94-22.94,21.26-29.81h0l1.32-1.73,2.28-.68,5.51-1.66,0,0,2.9-5.46,6.82-12.81Z"/><path class="cls-3" d="M271.79,662.21l0,0-.57.1Z"/><polygon class="cls-3" points="126.08 806 119.45 812.62 125.3 811.45 126.08 806"/><polygon class="cls-3" points="132.31 807.95 128.02 812.62 135.04 816.52 132.31 807.95"/><path class="cls-3" d="M113.61,823.53l-11.69,4.28-.39,9,7.41,12.47h6.23c0-4.28-.39-18.7,2.73-22.2Z"/></g></g><path class="cls-4" d="M445.9,899.1c0-1.55-.39-8.18-1.16-10.9,4.28-3.9,12.07-18.31,14-23.77,3.9-10.52-5.06-14-3.9-22.59,1.56-14.42,11.69-6.23,17.92-9,5.85-2.34,9.35-10.91,15.2-15.58,6.62,12.46,25.71-1.95,35.45-3.9-9.74-15.19-9-15.58,6.23-24.15,9.35-5.46,12.86-12.08,24.54-8.57,21.43,7,17.14,33.11,9,49.47,10.91-4.28,25.71-2.34,34.67-11.3,6.63-6.62,4.29-11.68,7.79-19.08,4.29-10.13,10.13-9.35,17.53-16.37-.39,6.24-1.16,13.25,5.46,15.59,5.45-4.29,9.35-12.08,1.17-15.2-.78-9.35,2.72-23,6.23-31.55,7.79-2,10.13,3.9,9,11.3,3.51,1.56,5.45,1.56,9,3.89,3.51-4.28,2.34-20.25,8.57-21.42,4.28-.78,8.57,8.57,12.47,10.13,1.55-13.25-7.41-36.23-1.56-48.7,10.52-21,18.7.39,14.41,11.3,6.23,3.89,13.64,8.18,19.09,13.24,7,6.24,10.52,16,19.09,6.63-1.17,11.68,3.89,13.63,9.35,22.59,4.28,7,10.9,23.37-4.29,15.58-11.3,10.13,5.07,12.47,5.07,21.43a11.33,11.33,0,0,1,3.5-.78c3.51,7.79,2,15.19,1.56,23.76.39-1.56,1.17-3.11,1.56-4.67.39.39,2,2,2.34,2,0,17.14,5.06,24.93,12.46,40.12,9,18.31,3.51,24.93-1.17,43.24-.39.78-2.72,0-3.5.39a17.48,17.48,0,0,1-.39,4.68c-23-17.92-2,41.29-16,46-7.41-10.9-.78-28.43-5.46-40.51-3.89-9.74-11.68-23.76-20.26-30.78-7,5.85-39.34,42.86-17.14,48.7-7.4,14,17.53,26.88,9.35,45.58-5.84,13.24-35.45,35.45-31.55,4.28,5.06-2,8.18-12.07,1.17-12.85-.78,0-10.91,9.35-12.86,10.52-8.57,5.45-31.94,6.62-29.6-10.13-17.53-3.51-21-7.79-30.39-22.21-3.12-5.06-10.52-8.57-11.3-15.19,0-.39,4.29-4.68,3.51-9a13.27,13.27,0,0,0-7.4-10.52c-.39-7.4,5.45-12.47,10.13-17.14,2.33,2.73,4.67,2,6.23,5.84,4.67-4.67-17.92-37-26.88-40.9-4.29-2-10.52,1.56-15.19,0-4.29-1.56-3.9-10.91-10.52-8.57-8.18,2.73-3.9,23.76,0,27.66-9,1.17-3.9-7-9-9-4.29-1.56-9,0-13.64,1.17,2-1.95,3.12-6.63,5.07-8.57-11.3-.78-20.65-.39-16.36,12.85-1.17-3.89-7.4-7.4-12.86-3.11,4.29-28.44-20.65-9.74-26.88,3.89-3.11,6.62-15.19,49.48-27.66,26.1a5.73,5.73,0,0,1,2.34,2Z"/><path class="cls-4" d="M436.94,929.88c-.77,19.87,5.07,16.75,21.43,20.26,2.73-7.79,9.35-14.81,15.19-20.65-7.4-14.8-39.34-3.51-35.45,10.52Z"/><path class="cls-5" d="M365.07,419.76a15.15,15.15,0,0,0-3-2.15l.42-.39Z"/><path class="cls-5" d="M433.08,170.51c-.28-8.77-2.53-20.53-8.25-20.68a6.88,6.88,0,0,0-4.25,1.71,19.86,19.86,0,0,1-3.83-5.82c-3-6.11-5.39-14.15-10-16.95a6.72,6.72,0,0,0-4.13-1c-.37-10.39.67-19.36,4.47-26.92.19-.38.39-.76.59-1.13,1.43-2.34,3.15-4.52,4.76-6.69,1-1.33,1.92-2.66,2.73-4,2.86-4.84,3.92-10-1.25-17-9-12.08-12.47-1.56-17.53,5.06-3.14,3.79-5.64,6.4-8.47,7.79-3.19,1.58-6.8,1.59-12.19,0-1.09-.32-2.25-.71-3.5-1.16a19,19,0,0,1-.18,2.24,19.92,19.92,0,0,0-.21,2.43,7.77,7.77,0,0,1-1-.14c-4.29-.88-5.86-5-9.12-6.09-1.12-.37-3.76-.93-6.32-1.44-2.81-.56-5.54-1.09-6.15-1.29-7.4-3.51-13.63-10.13-24.15-10.13a30.12,30.12,0,0,0-8.42,1.08,18.8,18.8,0,0,0-2.33.81c-4.89,2-8.42,5.68-11.07,11-.21.39-.4.78-.58,1.18-1.92,4.15-2.56,8.45-4.37,12.9a27.94,27.94,0,0,1-2.26,4.46,25.17,25.17,0,0,1-1.75,2.49,86.67,86.67,0,0,1-14.8,14.42c7.79,18.31,12.46,28,9,47.91-3.12,16.36-9,28.05-15.58,43.63a26,26,0,0,1,8.24,5.89c4.19,4.29,7.4,10,7.19,15.18a10.43,10.43,0,0,1-3,7c-4.2,4.47-14.09,4.5-21.38,2a19.46,19.46,0,0,1-5.93-3.08,9.07,9.07,0,0,1-1.9-2.05,47.07,47.07,0,0,0,.63,12.74c.74,4.28,2,8.41,3.65,11,1.77,2.9,4.35,4.33,6.51,5.8a15.7,15.7,0,0,1,1.36,1c2.29,1.85,3.61,4.19,1.87,9.59a13.26,13.26,0,0,0-3.36.59c-9.67,3.19-.2,17.76,6.28,26.89,2,2.82,3.71,5.13,4.48,6.41,4.32,7.41,3.26,7.48,2.82,12.43,0,0,0,0,0,0a71.95,71.95,0,0,0,.16,9.93c.56,4.65,2.1,8.41,5.74,8a8.8,8.8,0,0,1-1.32,2.3c3.5-2.36,6.5-2.25,9.06-.55a12.29,12.29,0,0,1,2.68,2.51c4.15,5.11,6.84,14.49,8.46,22.26.43,2.09.79,4.07,1.08,5.81q1.2-.64,2.4-1.26h0l2-1c2.09-1,4.25-2,6.47-3,1.78-2.19,4.17-3.95,4.81-7.57a8.7,8.7,0,0,0,.13-.87c.4-3.95-1.85-7.42-2.56-11.57a12.9,12.9,0,0,1,.09-5.09c11.69-2,19.09,4.67,27.66,11.29-1.12,1-2.25,1.9-3.38,2.85-1.37,1.13-2.73,2.27-4.07,3.44,1.41-.32,2.84-.62,4.31-.89a140,140,0,0,1,25.74-2.2,113.22,113.22,0,0,1,24.42,2.53l.36.08c.1-.36.21-.72.35-1.09a19.06,19.06,0,0,1,1.75-3.55c-6.09-1-7.32-8.78-9-15.94-.88-3.82-1.88-7.46-3.8-9.82a6.9,6.9,0,0,0-5.94-2.68c-.49-1.68-.93-3.31-1.3-4.91-.16-.69-.31-1.37-.44-2A32,32,0,0,1,378.12,298c1.35-3.36,5-5.27,6.74-8a5.89,5.89,0,0,0,.66-1.36c1.17-3.11-1.56-6.23-.39-10.12,2.29-8.26,8.9-17.19,16.1-25.36,5-5.72,10.34-11.06,14.67-15.55-.19,1.41-.42,2.85-.66,4.3-.29,1.74-.59,3.5-.83,5.26a41.5,41.5,0,0,0-.45,8.36c1.66-2.35,3.57-4.46,5.21-6.62a22.58,22.58,0,0,0,2.95-4.84,13.09,13.09,0,0,0,.41-9.19c-.39-.39-2.34-.39-2.34-.39-1.56-19.86,8.57-37.78,12.47-56.09A35.43,35.43,0,0,0,433.08,170.51ZM286.45,338.16,284,330.57C285.27,334.06,287.16,335.61,286.45,338.16Z"/><path class="cls-5" d="M545.16,409.5v13a35.34,35.34,0,0,0-4.34-.82c-3.15-.33-5.77.4-6.88,4.48-.78,3.5,7,18.7,7.4,24.15a37.19,37.19,0,0,1,.15,5.19c-.1,4.1-.44,8.17,1.07,11.12a6.31,6.31,0,0,0,.78,1.22,6,6,0,0,0,.73.78,8.56,8.56,0,0,0,1.09.86v17.16a9.19,9.19,0,0,1-2.65-.1c-5.44-1.09-9.36-5.22-12.15-9.73V466.26H519.84a50,50,0,0,1-5.38-8c-2.69-4.47-5.33-8-10.9-6.74,1.07-8.05-1-11.67-4.57-14.2-2.76-1.95-6.42-3.26-10.27-5.46a33.09,33.09,0,0,1-6.2-4.49c-3-2.8-6-8.27-9.66-12.82a26.92,26.92,0,0,0-5.25-5.21l0,0a10.87,10.87,0,0,0-5.74-2.13c-.28-.45-.57-.9-.86-1.35h0c-1.31-2-2.64-3.94-4-5.84a116.08,116.08,0,0,0-15.8-17.85l-.69-.62a17.47,17.47,0,0,1,2.7-3.23c5.46-5.06,14-9.74,20.26-9.35,4.5.15,7,1.4,8.71,3.21,2.75,2.89,3.58,7.22,7.65,10.82,6.62,5.84,11.69,3.11,15.2,12.85.45,1.37.89,2.91,1.3,4.56,1.36,5.35,2.55,11.81,3.74,17.16,0,0,0,.07,0,.1h.06c8.52-1.59,11.23-10.92,6.17-17.52a30.74,30.74,0,0,1,9-5.46c1.56,2.34,4.29,8.57,6.62,9.74,5.85,3.12,7-1.17,13.64.39A23,23,0,0,1,545.16,409.5Z"/><path class="cls-5" d="M549.39,485.51a19.39,19.39,0,0,1-3.55,1.06Z"/><path class="cls-5" d="M118.36,795.06l1.48.42C118.72,795.31,118.3,795.17,118.36,795.06Z"/><path class="cls-5" d="M172.82,733.58v36.81c-4.82,3.93-10.75,5.22-16.36,8.73-3.26,2.09-6.13,4-8.89,5.67-1.43.89-2.83,1.72-4.24,2.51a72,72,0,0,1-11.85,5.35q-2.52.87-5.41,1.66c-.78.16-2.74.25-4.49.35a10.89,10.89,0,0,0-3.22.4l-1.25-.36c-.39.39,2,1.95-1.17,1.17,5.23-6.09,16.49-23.4,26.72-31.37h0a26.59,26.59,0,0,1,3.6-2.41,11.79,11.79,0,0,1,5.53-1.7,6.34,6.34,0,0,1,.76,0c.75-1.86,1.49-3.68,2.14-5.5a29.31,29.31,0,0,0,2.15-12C165.67,740.12,169.27,738,172.82,733.58Z"/><path class="cls-5" d="M218.06,685.82c.14-.35.28-.72.41-1.12l-.07.93Z"/><path class="cls-5" d="M354,503.7l0,1.26a9.68,9.68,0,0,0-1.64-2.21Z"/><path class="cls-5" d="M380.59,465.67h-49.1c-1.24-1.12-2.46-2.19-3.62-3.28-.81-.77-1.59-1.55-2.3-2.36a17.28,17.28,0,0,1-4.72-11.65c-3.34.79-5.29-.41-6.21-2.38a10,10,0,0,1,0-7v-1.94a3.19,3.19,0,0,0,.63.38c4.48,2.31,19.23,2,26.25,3.51,7.26,1.5,15.16,2.68,22.67,4.68,2.56.68,5.08,1.46,7.5,2.37.82,1.1,1.63,2.25,2.41,3.43,1,1.78,2,3.64,3,5.64h0A69.08,69.08,0,0,1,380.59,465.67Z"/><path class="cls-5" d="M388.29,514.21v9.63a20.24,20.24,0,0,1-2.44,3.37h0a13.82,13.82,0,0,1-3,2.54c-4.26,2.6-9.87,2.29-17.17-2.69-8.35-5.76-8.19-7.9-8.95-12.86Z"/><path class="cls-5" d="M414,356.06C419,354.5,431.49,328,429.15,323s-13.63-2.73-16.75,0c-10.13,9.73,7.4,29.6-2.34,35.83Z"/><path class="cls-5" d="M305.61,533.69c.55.2,1.1.41,1.63.64H276.31a29.6,29.6,0,0,1-.15-5.25c0-1,.15-2.06.28-3.17l-3.89,3.89c1.55-3.89,5.06-8.57,10.13-10.13,1.14,1.08,2.11,2,3,2.85,4,3.88,5.64,5.4,10.45,7.58.87.39,1.83.81,2.94,1.26C300.92,532.18,303.33,532.87,305.61,533.69Z"/><path class="cls-5" d="M311,545.54a7,7,0,0,1-1.36,1.54Z"/><path class="cls-5" d="M281,562.91a11.47,11.47,0,0,1-2.22-1.55Z"/><path class="cls-5" d="M545.16,518.62v24.29c-3.48-4.44-6.57-8.95-9.07-12.31-.78-1-1.49-2-2.15-2.75a25.75,25.75,0,0,0-3.88,3.48c-.73.77-1.44,1.58-2.14,2.41H508.63v0a107.64,107.64,0,0,0,9.82-5.51c.87-.51,1.75-1,2.65-1.51-.54-2.84-2.77-6.2-4.85-9.45-.79-1.23-1.56-2.45-2.2-3.62h16.28a6.35,6.35,0,0,0,.89.61,6.59,6.59,0,0,0,2.37.86c3.06.59,6.89,0,9.32,1.87C543.68,517.49,544.43,518.05,545.16,518.62Z"/><path class="cls-6" d="M515.62,581.69c-3,4-7.84,7.81-10.51,10.83-5.63,6.29-6.19,16.8-9.82,24.84a23.19,23.19,0,0,1-2.25,4,32.79,32.79,0,0,1-9.15,8.15,58,58,0,0,1-6.74,3.53c-.94.43-1.9.84-2.87,1.23-2.4,1-4.86,1.89-7.35,2.78l-5.33,1.89-1.81.65a186.66,186.66,0,0,0,21.44-44.27c1.18-4.74,3-8.88,3.55-13.62H494a38.31,38.31,0,0,1,2.12,3.82l.34-.5c.76-1.09,1.47-2.21,2.15-3.32Z"/><path class="cls-6" d="M493,683.68c-3.12,12.07-28.83,5.45-20.26,27.66,5.07,13.24,21.82,17.92,35.45,16.75.39,10.52-2.72,16.75,7.8,20.25,10.12,3.51,16.75-2.33,16.75-12.46-19.87-5.46-19.87-69-10.13-81.81,5.45-7.4,21-3.89,20.25-19.09-.77-16.36-15.58-13.63-20.64-2.72-11.3-22.21-21.43,17.53-21,26.88.39,8.57,3.9,13.24-2,21.42-5.06,7.4-14,8.18-17.53,16.75Z"/><path class="cls-6" d="M587.31,511.19l.07.05v.66l-.07,0Z"/><path class="cls-6" d="M686.51,608.38a7.48,7.48,0,0,1-1,2.84,28.36,28.36,0,0,1-5.59-1.89c-2.9-1.21-5.87-2.56-8.43-2.79-2.78-.32-6,.24-9.31.75-4.54.7-9.12,1.29-12.51-.75a12.78,12.78,0,0,1-4.44-5.15V505.55a11.45,11.45,0,0,0,2.1-1.07c7.76,15.51,18.73,20.23,23.05,35.37a45.31,45.31,0,0,1,1.5,7.87c1.46,12.46-.17,26.3,3.19,38.27.21.76.45,1.51.7,2.25,1.11,3.34,3.72,6.49,6.1,9.57,2,2.65,3.92,5.26,4.53,7.9A7.52,7.52,0,0,1,686.51,608.38Z"/><path class="cls-6" d="M569.54,697.88l.5.63c-.23.52-.45,1-.65,1.53V697.7Z"/><path class="cls-6" d="M616.86,695.35c-4.81,15.27-30.73,27.72-44.35,26.89a62.52,62.52,0,0,0,2.11-6.35c1.77-6.7.69-10.8-4.58-17.38.47-1,1-2.07,1.59-3.16Z"/><path class="cls-6" d="M652.26,674.52h0a23.39,23.39,0,0,1-4.34-2.21h0a23.91,23.91,0,0,1-2.7-2V633.68c6.39,8.59,15.71,18.72,18.07,28.18C666.36,674.74,659.58,677.23,652.26,674.52Z"/><path class="cls-6" d="M587.11,575.44l.11,0v0Z"/><path class="cls-6" d="M551.06,695.35c-.6,7.51-1.09,18.88-7.52,21.1a3.06,3.06,0,0,1-.43.13l-.17.55-1.6,5.5a15.67,15.67,0,0,0-.23-3.38c-.14-.82-.34-1.63-.56-2.43l-.38,0a2.84,2.84,0,0,0,.31-.21c-1.72-5.78-5.08-11.19-1.86-19.66.84-2.23,1.83-4.42,2.88-6.6,1.19-2.46,2.46-4.9,3.66-7.38v12.41Z"/><path class="cls-6" d="M1.15,645h0a50.87,50.87,0,0,1,4.14-21.31,59.34,59.34,0,0,1,11.84-17.17,55.05,55.05,0,0,1,17.76-11.84,58.38,58.38,0,0,1,22.5-4.14h0a58.33,58.33,0,0,1,22.49,4.14,54.94,54.94,0,0,1,17.76,11.84,51.19,51.19,0,0,1,12.43,17.17c3,6.51,4.15,14.21,4.15,21.31h0a55.41,55.41,0,0,1-4.15,21.9c-3,7.11-7.1,12.43-12.43,17.76a71.51,71.51,0,0,1-17.76,11.84,56.35,56.35,0,0,1-22.49,4.14h0a56.4,56.4,0,0,1-22.5-4.14c-7.1-3-13-6.51-17.76-11.84C11.81,680,8.25,674,5.29,666.93A55.4,55.4,0,0,1,1.15,645Z"/><path class="cls-6" d="M278.78,561.36a11.47,11.47,0,0,0,2.22,1.55Zm0,0a11.47,11.47,0,0,0,2.22,1.55Zm0,0a11.47,11.47,0,0,0,2.22,1.55Zm0,0a11.47,11.47,0,0,0,2.22,1.55Zm0,0a11.47,11.47,0,0,0,2.22,1.55Zm0,0a11.47,11.47,0,0,0,2.22,1.55Zm0,0a11.47,11.47,0,0,0,2.22,1.55Zm0,0a11.47,11.47,0,0,0,2.22,1.55Zm0,0a11.47,11.47,0,0,0,2.22,1.55Zm0,0a11.47,11.47,0,0,0,2.22,1.55Zm0,0a11.47,11.47,0,0,0,2.22,1.55Zm0,0a11.47,11.47,0,0,0,2.22,1.55Zm0,0a11.47,11.47,0,0,0,2.22,1.55Zm0,0a11.47,11.47,0,0,0,2.22,1.55Zm0,0a11.47,11.47,0,0,0,2.22,1.55Zm0,0a11.47,11.47,0,0,0,2.22,1.55Zm0,0a11.47,11.47,0,0,0,2.22,1.55Zm0,0a11.47,11.47,0,0,0,2.22,1.55Zm0,0a11.47,11.47,0,0,0,2.22,1.55Zm0,0a11.47,11.47,0,0,0,2.22,1.55Zm0,0a11.47,11.47,0,0,0,2.22,1.55Zm0,0a11.47,11.47,0,0,0,2.22,1.55Zm0,0a11.47,11.47,0,0,0,2.22,1.55Zm0,0a11.47,11.47,0,0,0,2.22,1.55Zm0,0a11.47,11.47,0,0,0,2.22,1.55Zm0,0a11.47,11.47,0,0,0,2.22,1.55Zm0,0a11.47,11.47,0,0,0,2.22,1.55Zm0,0a11.47,11.47,0,0,0,2.22,1.55Zm0,0a11.47,11.47,0,0,0,2.22,1.55Zm0,0a11.47,11.47,0,0,0,2.22,1.55Zm0,0a11.47,11.47,0,0,0,2.22,1.55Zm0,0a11.47,11.47,0,0,0,2.22,1.55Zm0,0a11.47,11.47,0,0,0,2.22,1.55Zm0,0a11.47,11.47,0,0,0,2.22,1.55Zm0,0a11.47,11.47,0,0,0,2.22,1.55Zm0,0a11.47,11.47,0,0,0,2.22,1.55Zm0,0a11.47,11.47,0,0,0,2.22,1.55Zm0,0a11.47,11.47,0,0,0,2.22,1.55Zm0,0a11.47,11.47,0,0,0,2.22,1.55Zm0,0a11.47,11.47,0,0,0,2.22,1.55Zm0,0a11.47,11.47,0,0,0,2.22,1.55Zm0,0a11.47,11.47,0,0,0,2.22,1.55Zm0,0a11.47,11.47,0,0,0,2.22,1.55Zm0,0a11.47,11.47,0,0,0,2.22,1.55Zm0,0a11.47,11.47,0,0,0,2.22,1.55Zm0,0a11.47,11.47,0,0,0,2.22,1.55Zm0,0a11.47,11.47,0,0,0,2.22,1.55Zm0,0a11.47,11.47,0,0,0,2.22,1.55Zm0,0a11.47,11.47,0,0,0,2.22,1.55Zm0,0a11.47,11.47,0,0,0,2.22,1.55Zm0,0a11.47,11.47,0,0,0,2.22,1.55Zm0,0a11.47,11.47,0,0,0,2.22,1.55Zm0,0a11.47,11.47,0,0,0,2.22,1.55Zm0,0a11.47,11.47,0,0,0,2.22,1.55Zm0,0a11.47,11.47,0,0,0,2.22,1.55Zm0,0a11.47,11.47,0,0,0,2.22,1.55Zm0,0a11.47,11.47,0,0,0,2.22,1.55Zm0,0a11.47,11.47,0,0,0,2.22,1.55Zm0,0a11.47,11.47,0,0,0,2.22,1.55Zm0,0a11.47,11.47,0,0,0,2.22,1.55Zm0,0a11.47,11.47,0,0,0,2.22,1.55Zm0,0a11.47,11.47,0,0,0,2.22,1.55Zm236.81-56.65c0-.35,0-.69,0-1l1.84.54c.28-.06.58-.11.89-.15,6.56-1.09,7.56,2.79,9.45,6.29l.68-.06,1.87,1.75v-34l-5.77-6.68-10.13-3.51v-1.6H502.73l9.79,9.78,1.55,7.79L511,490.07l-17.53-18.7.26-5.11h-8.32c-1.18-4.15-1.78-8.29-3-12.43a170.57,170.57,0,0,0-20.58-46.67,10.3,10.3,0,0,0-4.73,1l-.72,2.43c.24,1.14.56,2.28.92,3.43l12.75,22.32,4.29,22.2-5.46.78-.87-1.51c-9.15-6.19-14.82-17.58-21.17-27.22l-5.61-4L437.12,419c-.56-.48-1.14-.92-1.74-1.34-5.76-3.94-21.41-10.71-32.48-11.51l-7.51.78a4.71,4.71,0,0,0-.52.21,12.45,12.45,0,0,0-2.64,1.59l-2.61,3.83c-.78,2.74-.11,5.79-.45,8.74l1,3.37-4,2.48h0a9.17,9.17,0,0,1-4.07,2.55h0l-4.39,2.75-12.66-12.65-2.54-2.54-.42.39-8.54,7.79-10.51,2.34,2.33-4.09c-6,.61-6.08-3.38-.39-12.66a17.34,17.34,0,0,0-5.06-4.29,14,14,0,0,0-4.77,4.2l-3,10.6-.44-.76a15.06,15.06,0,0,1-4.24,0c-1.76-3.52-3-8.47-3.75-13.77l-.09-.64a89.87,89.87,0,0,1-.44-21c.11-.79.24-1.56.4-2.31h0a0,0,0,0,1,0,0c2.26-11.39,8.88-18.44,16.28-24.86l-1.91.46c-4.09,1-8.2,2.27-12.2,3.7h0l-7.25,9.42-3.33-.15a14.32,14.32,0,0,0,.22,1.71,13.27,13.27,0,0,1-8.57,1.17c-.14-1-.32-2.17-.54-3.48a110.84,110.84,0,0,0-19.23,12.49,215.41,215.41,0,0,0-20.72,19.54l-7.1-24.27c-1.77-5.33-4.73-10.06-8.88-12.43-4.14-3-9.47-4.15-16-4.15H172.82V466.85h-58V514.8h58v20.13h-58v47.94h58V733.58c1.94-2.41,3.87-5.51,6.62-9.78,4.68-7.79,13.25-23.37,21-28a23.5,23.5,0,0,1,4.13-2l.15-.31,13.3-7.6.34-.19.07-.93.71-9.2,2.41-2.8c1.27-4.79,3.2-8.43,10-11.62l.37.49,7.81,1.07.27-.31c3.13-10.67,7.28-24.47-1.44-33.19,2,.55,4.29,1.27,6.65,1.76l-2.36-3.71,6.92,4.25a14.16,14.16,0,0,0,3-.23l-.14-1.43c-4.95-9.4-3.49-27.25-2.75-37.65a19.25,19.25,0,0,1,3.89,1.64v-.08l5.84-2.34c.73,6.93,1.8,22,1,30a8.66,8.66,0,0,0,.58,1.14c3.51,5.45,10.13,3.11,15.58,7.79,6.62,6.23,6.62,23,.39,29.21a10.83,10.83,0,0,1-5.43,2.69l-.59.14-.45.09c-2.39.49-4.83.78-6.77,1.76-5.85,3.12-5.85,4.67-11.3,10.13-.63.63-1.27,1.23-1.94,1.81l-3.9,11-13.77,1.06a37.84,37.84,0,0,0-8.83,8.68c-2.8,4-4.2,8.53-5.45,13.23V718L215,722.61a29.29,29.29,0,0,1-3.58,6.26,24.38,24.38,0,0,1-1.8,2l-.54,4.61-10.52,9-14.3,5.13a25.49,25.49,0,0,0-2.06,2.66c-3.12,5.06-2.73,11.69-7.79,16.75a18.6,18.6,0,0,1-1.56,1.4v30.92h99.44V672.85c9.48,8.29,20.72,14.8,32.56,20.13,11.84,4.73,26.05,7.69,43.81,7.69,21.31,0,40.84-4.14,58-13a135.13,135.13,0,0,0,45-36.7q3.9-5,7.49-10.36l-8.54,5.69-4.29,5.45-5.84,2.34L435,631.87l4.68-16-.39-23a88.11,88.11,0,0,0,2.87-16.67c-3.1-6.68-10.1-9.13-20-12.16a7.59,7.59,0,0,1,.93-5.92h0a1.87,1.87,0,0,1,.23-.3l-.19.16-2.54,2.18c1.74-8,6.81-10.22,13-9.64l4.94-1.27,3.33,3.33c8.48,3.14,17.2,8.91,21.6,11.47a10,10,0,0,0-2.68,1.81l.34.14-1.54,3.59c7.69,1.17,14.35.72,20.19,1.9,5.44,1.1,10.16,3.61,14.29,10.17h4.61c3.41-5.51,6.4-11.09,12.71-14.88,6.09,3.42,7.48,7,6.53,10.5l1.65,2.74-.34,1.64h11.17v-48h-2.44c-2.65,3.14-5.16,6.48-8,8.72l-4.24,6.82-3.11-7.4v-.26a23.91,23.91,0,0,1-3.9-7.88H491.29V513.61H514C511.86,509.65,511.07,506.24,515.59,504.71ZM297.09,410.6l12.08,12.85L305.66,427l-16.36-7-1.56-9.35Zm5.45,248.15c-5.06.39-14.8.39-19.48-.39l3.12-7.8,5.07-3.89,2.33-5.45a33.1,33.1,0,0,0,9.35,10.12Zm67.4-54.57c-5.92,8.29-12.43,14.21-20.13,17.76a61.14,61.14,0,0,1-25.45,5.33,88.61,88.61,0,0,1-27.83-4.73,63,63,0,0,1-24.27-17.76V581.69H380.59C378.22,590.57,374.67,598.26,369.94,604.18Zm-93.5-46.72,1.17-7.79,13.64,3.89,4.28,9.74a21.8,21.8,0,0,0-4.76,3.6,7.31,7.31,0,0,1,3.59,4.19c1.95,7-2.72,9.35-7.79,9.74-12.62.68-17.78-16.87-8.64-17.56Zm120-50v1.32L393,511.13h0a54,54,0,0,1-2.79,8.9v3.53l-1.9,1.59v9.17H308.8l2.7.54,2.73,7L311,545.54l-1.36,1.54a7.4,7.4,0,0,1-1.82,1.16c-4.9,2.27-12.45.32-17.35-.91-8.8-2.35-13.19-5.79-14.16-13h-4.05V514.21h82L354,505l0-1.26-1.6-.95-8.91-5.28V482.14c-1.58-5.24-1.86-4.93-5.85-10a43.71,43.71,0,0,0-6.11-6.48H272.26v-3a96.23,96.23,0,0,1,13-13.62c4.14-4.14,8.88-7.1,14.2-10.06a55.46,55.46,0,0,1,16.58-5.92,97.58,97.58,0,0,1,19.53-2.37,53.87,53.87,0,0,1,21.91,4.74c5.43,2.47,10,7,14.16,12.55,1.54.58,3,1.21,4.5,1.91,3.9,1.95,14.41,7,17.14,10.52,3,4.06,2.39,6.85,1.17,9.86V478l-2,3.75C395,488.2,408.46,505.61,396.43,507.45Zm26.22-53.72c-3.76-1-7.48-2.54-8.3-3.79-2.1-2.7-2.3-4.88-1.72-7l-1-5.06,7-9.74,12.08,4.67,6.62,11.3c-.22.22-.44.46-.67.71,1,3.17-.45,6.54-6,9.42l-.19.08a23.53,23.53,0,0,0-1.37,3.81Zm19,83.08-8.19,2.73-7-17.14c4.68-5.45,11.69-17.14,13.64-24.15l5.06-5.07L442,508.38l4.67,11.68ZM479,520.45l-12.46.78L465,513.44l5.84-4.29,9,4.68ZM278.78,561.36a11.47,11.47,0,0,0,2.22,1.55Zm0,0a11.47,11.47,0,0,0,2.22,1.55Zm0,0a11.47,11.47,0,0,0,2.22,1.55Zm0,0a11.47,11.47,0,0,0,2.22,1.55Zm0,0a11.47,11.47,0,0,0,2.22,1.55Zm0,0a11.47,11.47,0,0,0,2.22,1.55Zm0,0a11.47,11.47,0,0,0,2.22,1.55Zm0,0a11.47,11.47,0,0,0,2.22,1.55Zm0,0a11.47,11.47,0,0,0,2.22,1.55Zm0,0a11.47,11.47,0,0,0,2.22,1.55Zm0,0a11.47,11.47,0,0,0,2.22,1.55Zm0,0a11.47,11.47,0,0,0,2.22,1.55Zm0,0a11.47,11.47,0,0,0,2.22,1.55Zm0,0a11.47,11.47,0,0,0,2.22,1.55Zm0,0a11.47,11.47,0,0,0,2.22,1.55Zm0,0a11.47,11.47,0,0,0,2.22,1.55Zm0,0a11.47,11.47,0,0,0,2.22,1.55Zm0,0a11.47,11.47,0,0,0,2.22,1.55Zm0,0a11.47,11.47,0,0,0,2.22,1.55Zm0,0a11.47,11.47,0,0,0,2.22,1.55Zm0,0a11.47,11.47,0,0,0,2.22,1.55Zm0,0a11.47,11.47,0,0,0,2.22,1.55Zm0,0a11.47,11.47,0,0,0,2.22,1.55Zm0,0a11.47,11.47,0,0,0,2.22,1.55Zm0,0a11.47,11.47,0,0,0,2.22,1.55Zm0,0a11.47,11.47,0,0,0,2.22,1.55Zm0,0a11.47,11.47,0,0,0,2.22,1.55Zm0,0a11.47,11.47,0,0,0,2.22,1.55Zm0,0a11.47,11.47,0,0,0,2.22,1.55Zm0,0a11.47,11.47,0,0,0,2.22,1.55Zm0,0a11.47,11.47,0,0,0,2.22,1.55Zm0,0a11.47,11.47,0,0,0,2.22,1.55Zm0,0a11.47,11.47,0,0,0,2.22,1.55Zm0,0a11.47,11.47,0,0,0,2.22,1.55Zm0,0a11.47,11.47,0,0,0,2.22,1.55Zm0,0a11.47,11.47,0,0,0,2.22,1.55Zm0,0a11.47,11.47,0,0,0,2.22,1.55Zm0,0a11.47,11.47,0,0,0,2.22,1.55Zm0,0a11.47,11.47,0,0,0,2.22,1.55Zm0,0a11.47,11.47,0,0,0,2.22,1.55Zm0,0a11.47,11.47,0,0,0,2.22,1.55Zm0,0a11.47,11.47,0,0,0,2.22,1.55Zm0,0a11.47,11.47,0,0,0,2.22,1.55Zm0,0a11.47,11.47,0,0,0,2.22,1.55Zm0,0a11.47,11.47,0,0,0,2.22,1.55Zm0,0a11.47,11.47,0,0,0,2.22,1.55Zm0,0a11.47,11.47,0,0,0,2.22,1.55Zm0,0a11.47,11.47,0,0,0,2.22,1.55Zm0,0a11.47,11.47,0,0,0,2.22,1.55Zm0,0a11.47,11.47,0,0,0,2.22,1.55Zm0,0a11.47,11.47,0,0,0,2.22,1.55Zm0,0a11.47,11.47,0,0,0,2.22,1.55Zm139.7-195.14a96.55,96.55,0,0,0-23.76-8.64c-1.67,6,1.08,11.09,4.82,18,.39.72.8,1.6,1.21,2.58l2.69,2.09,6.23,12.86,15.19,5.45,9.06-3a16.76,16.76,0,0,0,2.55-4.7l1.64-6.3,1.14-.89a18.31,18.31,0,0,1,1.22-2.12A105.92,105.92,0,0,0,418.48,366.22Zm1.32,21.39-2.34-10.91,9.74,6.24,2.34,10.13Zm-141,173.75a11.47,11.47,0,0,0,2.22,1.55Zm0,0a11.47,11.47,0,0,0,2.22,1.55Zm0,0a11.47,11.47,0,0,0,2.22,1.55Zm0,0a11.47,11.47,0,0,0,2.22,1.55Zm0,0a11.47,11.47,0,0,0,2.22,1.55Zm0,0a11.47,11.47,0,0,0,2.22,1.55Zm0,0a11.47,11.47,0,0,0,2.22,1.55Zm0,0a11.47,11.47,0,0,0,2.22,1.55Zm0,0a11.47,11.47,0,0,0,2.22,1.55Zm0,0a11.47,11.47,0,0,0,2.22,1.55Zm0,0a11.47,11.47,0,0,0,2.22,1.55Z"/><path class="cls-7" d="M530.36,466.26v10.57a44.93,44.93,0,0,1-3-5.85,15,15,0,0,1-7.48-4.72Z"/><path class="cls-8" d="M461.09,566l-1.54,3.59c-.9-.13-1.81-.28-2.74-.47a19.72,19.72,0,0,0,3.94-3.26Z"/><path class="cls-9" d="M530.36,512.07v1.54h0a10.07,10.07,0,0,1-2.51-3.23l.68-.06Z"/><path class="cls-9" d="M517.47,504.24a11.72,11.72,0,0,0-1.88.47c0-.35,0-.69,0-1Z"/><path class="cls-9" d="M457.1,408.13l-.72,2.43c-.14-.64-.26-1.28-.35-1.91A11.62,11.62,0,0,1,457.1,408.13Z"/><path class="cls-9" d="M439.25,383.61c-1.21,2.44-1.89,4.9-2.78,7.19l1.64-6.3Z"/><path class="cls-9" d="M436.47,390.8,435.38,395l-1.46.49A16.76,16.76,0,0,0,436.47,390.8Z"/><path class="cls-9" d="M392.23,408.68l-2.61,3.83A7.28,7.28,0,0,1,392.23,408.68Z"/><path class="cls-9" d="M402.9,406.1l-7.51.78A17.73,17.73,0,0,1,402.9,406.1Z"/><path class="cls-6" d="M253.07,633.42l-3.21-2a14.16,14.16,0,0,0,3-.23Z"/><path class="cls-10" d="M530.36,476.83v1.22l-5.77-6.68-10.13-3.51v-1.6h5.38a15,15,0,0,0,7.48,4.72A44.93,44.93,0,0,0,530.36,476.83Z"/><path class="cls-10" d="M519.53,580.05l-.34,1.64h-3.57a13,13,0,0,0,2.26-4.38Z"/><path class="cls-10" d="M459.79,639.58l-.66,1h0l-8.54,5.69-4.29,5.45-5.84,2.34L435,631.87l4.68-16-.39-23a88.11,88.11,0,0,0,2.87-16.67c1.29,2.77,1.91,6.26,1.8,10.83-.78,20.25-3.89,40.51-2.72,61.55C446.52,644.68,453.05,642,459.79,639.58Z"/><path class="cls-10" d="M441.83,552.61a33.58,33.58,0,0,0-8.27-2.06l4.94-1.27Z"/><path class="cls-10" d="M519.87,542.46l-4.24,6.82-3.11-7.4v-.26c1.09,1.55,2.29,3,3.49,4.54V544.6A13.1,13.1,0,0,0,519.87,542.46Z"/><polygon class="cls-10" points="514.07 483.83 510.96 490.07 493.43 471.37 493.69 466.26 502.73 466.26 512.52 476.04 514.07 483.83"/><polygon class="cls-10" points="479.79 513.83 479.01 520.45 466.55 521.23 464.99 513.44 470.83 509.15 479.79 513.83"/><path class="cls-10" d="M446.68,520.06l-5.06,16.75-8.19,2.73-7-17.14c4.68-5.45,11.69-17.14,13.64-24.15l5.06-5.07L442,508.38Z"/><path class="cls-10" d="M430.52,454.31a23.53,23.53,0,0,0-1.37,3.81l-6.5-4.39C425.8,454.54,429,454.92,430.52,454.31Z"/><path class="cls-10" d="M437.33,444.1c-.22.22-.44.46-.67.71-1.89-6.26-13-11.75-20-11.23v-2.34c-.24,5-3.13,8.3-4.05,11.69l-1-5.06,7-9.74,12.08,4.67Z"/><path class="cls-10" d="M325.76,362.22l-7.25,9.42-3.33-.15a8.12,8.12,0,0,1,2-5.91C320,364.38,322.84,363.25,325.76,362.22Z"/><polygon class="cls-10" points="429.54 393.07 419.8 387.61 417.46 376.7 427.2 382.94 429.54 393.07"/><path class="cls-10" d="M400.75,378.12,392.92,372V359.56l1.44-2.06.36.08c-1.67,6,1.08,11.09,4.82,18C399.93,376.26,400.34,377.14,400.75,378.12Z"/><path class="cls-10" d="M433.92,395.5a12.58,12.58,0,0,1-3.6,3c-7,4.28-19.48.78-23.38-5.06-1.94-3.24-4.15-10.52-6.19-15.34l2.69,2.09,6.23,12.86,15.19,5.45Z"/><path class="cls-10" d="M474.34,458.51l-5.46.78-.87-1.51.49.34c6.59-13.86-6.57-29.58-11.2-44.13l12.75,22.32Z"/><path class="cls-10" d="M446.84,430.56l-5.61-4L437.12,419C440.79,422,443.88,426.08,446.84,430.56Z"/><path class="cls-10" d="M390.19,424.62l-4,2.48c.28-.28.57-.59.86-.92a8.65,8.65,0,0,0,2.09-4.93Z"/><path class="cls-10" d="M382.12,429.66l-4.39,2.75-12.66-12.65c.84.66,1.91,1.5,3.31,2.52C372.56,425.27,377,431,382.12,429.66Z"/><path class="cls-10" d="M335.17,410.9l-3,10.6-.44-.76a3.24,3.24,0,0,1,.44,0A16.84,16.84,0,0,1,335.17,410.9Z"/><path class="cls-10" d="M362.11,417.61l-8.54,7.79-10.51,2.34,2.33-4.09a32.19,32.19,0,0,0,7-1.76C360.17,419.07,360.69,417.1,362.11,417.61Z"/><polygon class="cls-10" points="309.17 423.45 305.66 426.96 289.3 419.95 287.74 410.6 297.09 410.6 309.17 423.45"/><path class="cls-10" d="M394.48,470.32V478l-2,3.75a5.16,5.16,0,0,1-.38-1.41C391.77,476,393.36,473.09,394.48,470.32Z"/><path class="cls-10" d="M396.43,507.45v1.32L393,511.13c.26-1.15.5-2.33.72-3.53A16.25,16.25,0,0,0,396.43,507.45Z"/><path class="cls-10" d="M390.19,520v3.53l-1.9,1.59v-1.32A29.27,29.27,0,0,0,390.19,520Z"/><path class="cls-10" d="M356.7,514.21h-2.4L354,505a15.24,15.24,0,0,1,1.13,2.64A38.55,38.55,0,0,1,356.7,514.21Z"/><path class="cls-10" d="M352.36,502.75l-8.91-5.28V482.14l.39,1.3c1.55,4.68,0,9,2.72,13.64C348.34,500.38,350.46,500.87,352.36,502.75Z"/><path class="cls-10" d="M311.11,545.38c3.9-6.33.64-9.16-3.87-11h1.56l2.7.54,2.73,7L311,545.54Z"/><path class="cls-10" d="M290.77,566.9c-2.84-1.62-6.7-2.31-9.77-4l-2.22-1.55a11.47,11.47,0,0,0,2.22,1.55l1.68,1.17a11.54,11.54,0,0,0-4.75-.81l-1.49-5.81,1.17-7.79,13.64,3.89,4.28,9.74A21.8,21.8,0,0,0,290.77,566.9Z"/><path class="cls-10" d="M253.46,631.09c-.21,0-.41.09-.62.12l-.14-1.43A12.82,12.82,0,0,0,253.46,631.09Z"/><path class="cls-10" d="M302.93,651.34l-.39,7.41c-5.06.39-14.8.39-19.48-.39l3.12-7.8,5.07-3.89,2.33-5.45A33.1,33.1,0,0,0,302.93,651.34Z"/><path class="cls-10" d="M260.67,621.38c-2.49-5.78-2.15-18.37-2.15-24.18a21,21,0,0,0-4.68-3.43v-.08l5.84-2.34C260.42,598.28,261.49,613.4,260.67,621.38Z"/><path class="cls-10" d="M249.86,631.44a23.37,23.37,0,0,1-4.56-.54l-2.36-3.71Z"/><path class="cls-10" d="M250.74,676.14l-3.9,11-13.77,1.06C238.86,684,245.37,680.8,250.74,676.14Z"/><path class="cls-10" d="M240.09,662.33c-.23.77-.45,1.52-.66,2.26-4.1-1.5-4.63.59-7.42-3l7.81,1.07Z"/><path class="cls-10" d="M221.59,672.7c-.74,2.82-1.25,6-2.41,9.81-.24.8-.47,1.52-.71,2.19l.71-9.2Z"/><path class="cls-10" d="M218.06,685.82c-3.26,8.35-6.48,5.33-13.45,7.91l.15-.31Z"/><path class="cls-10" d="M218.79,710.15V718L215,722.61A90.39,90.39,0,0,0,218.79,710.15Z"/><path class="cls-10" d="M209.59,730.88l-.54,4.61-10.52,9-14.3,5.13C191.11,741.78,202.32,738.31,209.59,730.88Z"/><path class="cls-11" d="M396.43,507.45a16.25,16.25,0,0,1-2.73.15c-.22,1.2-.46,2.38-.72,3.53h0a54,54,0,0,1-2.79,8.9,29.27,29.27,0,0,1-1.9,3.8v-9.63H356.7a38.55,38.55,0,0,0-1.57-6.61A15.24,15.24,0,0,0,354,505l0-1.26-1.6-.95c-1.9-1.88-4-2.37-5.8-5.67-2.72-4.68-1.17-9-2.72-13.64l-.39-1.3c-1.58-5.24-1.86-4.93-5.85-10a43.71,43.71,0,0,0-6.11-6.48h49.1a69.08,69.08,0,0,0-3.52-8.55h0c-.95-2-2-3.86-3-5.64-.78-1.18-1.59-2.33-2.41-3.43,1.54.58,3,1.21,4.5,1.91,3.9,1.95,14.41,7,17.14,10.52,3,4.06,2.39,6.85,1.17,9.86-1.12,2.77-2.71,5.72-2.34,10a5.16,5.16,0,0,0,.38,1.41C395,488.2,408.46,505.61,396.43,507.45Z"/><path class="cls-11" d="M517.88,577.31a13,13,0,0,1-2.26,4.38h-17c3.41-5.51,6.4-11.09,12.71-14.88C517.44,570.23,518.83,573.82,517.88,577.31Z"/><path class="cls-11" d="M494,581.69h-9.25c-.59,4.74-2.37,8.88-3.55,13.62a186.66,186.66,0,0,1-21.44,44.27c-6.74,2.44-13.27,5.1-18.56,9-1.17-21,1.94-41.3,2.72-61.55.11-4.57-.51-8.06-1.8-10.83-3.1-6.68-10.1-9.13-20-12.16a7.59,7.59,0,0,1,.93-5.92h0a1.87,1.87,0,0,1,.23-.3l-.19.16-2.54,2.18c1.74-8,6.81-10.22,13-9.64a33.58,33.58,0,0,1,8.27,2.06c8.48,3.14,17.2,8.91,21.6,11.47a10,10,0,0,0-2.68,1.81,19.72,19.72,0,0,1-3.94,3.26c.93.19,1.84.34,2.74.47,7.69,1.17,14.35.72,20.19,1.9C485.18,572.62,489.9,575.13,494,581.69Z"/><path class="cls-11" d="M527.92,533.74c-2.65,3.14-5.16,6.48-8,8.72A13.1,13.1,0,0,1,516,544.6v1.56c-1.2-1.49-2.4-3-3.49-4.54a23.91,23.91,0,0,1-3.9-7.88Z"/><path class="cls-11" d="M530.32,513.61H514c-2.18-4-3-7.37,1.55-8.9a11.72,11.72,0,0,1,1.88-.47c.28-.06.58-.11.89-.15,6.56-1.09,7.56,2.79,9.45,6.29A10.07,10.07,0,0,0,530.32,513.61Z"/><path class="cls-11" d="M430.71,454.23l-.19.08c-1.54.61-4.72.23-7.87-.58-3.76-1-7.48-2.54-8.3-3.79-2.1-2.7-2.3-4.88-1.72-7,.92-3.39,3.81-6.66,4.05-11.69v2.34c7-.52,18.09,5,20,11.23C437.62,448,436.21,451.35,430.71,454.23Z"/><path class="cls-11" d="M315.18,371.49a14.32,14.32,0,0,0,.22,1.71,13.27,13.27,0,0,1-8.57,1.17c-.14-1-.32-2.17-.54-3.48q1.2-.64,2.4-1.26h0l2-1c2.09-1,4.25-2,6.47-3A8.12,8.12,0,0,0,315.18,371.49Z"/><path class="cls-11" d="M468.5,458.12l-.49-.34c-9.15-6.19-14.82-17.58-21.17-27.22-3-4.48-6-8.59-9.72-11.61-.56-.48-1.14-.92-1.74-1.34-5.76-3.94-21.41-10.71-32.48-11.51a17.73,17.73,0,0,0-7.51.78,4.71,4.71,0,0,0-.52.21,12.45,12.45,0,0,0-2.64,1.59,7.28,7.28,0,0,0-2.61,3.83c-.78,2.74-.11,5.79-.45,8.74a8.65,8.65,0,0,1-2.09,4.93c-.29.33-.58.64-.86.92h0a9.17,9.17,0,0,1-4.07,2.55h0c-5.15,1.34-9.56-4.39-13.74-7.38-1.4-1-2.47-1.86-3.31-2.52l-2.54-2.54-.42.39c-1.42-.51-1.94,1.46-9.7,4.28a32.19,32.19,0,0,1-7,1.76c-6,.61-6.08-3.38-.39-12.66a17.34,17.34,0,0,0-5.06-4.29,14,14,0,0,0-4.77,4.2,16.84,16.84,0,0,0-3,9.82,3.24,3.24,0,0,0-.44,0,15.06,15.06,0,0,1-4.24,0c-1.76-3.52-3-8.47-3.75-13.77l-.09-.64a89.87,89.87,0,0,1-.44-21c.11-.79.24-1.56.4-2.31h0a0,0,0,0,1,0,0c2.26-11.39,8.88-18.44,16.28-24.86h0c1.41-.32,2.84-.62,4.31-.89a140,140,0,0,1,25.74-2.2,113.22,113.22,0,0,1,24.42,2.53l-1.44,2.06V372l7.83,6.09c2,4.82,4.25,12.1,6.19,15.34,3.9,5.84,16.37,9.34,23.38,5.06a12.58,12.58,0,0,0,3.6-3l1.46-.49,1.09-4.21c.89-2.29,1.57-4.75,2.78-7.19a18.31,18.31,0,0,1,1.22-2.12l.69.62A116.08,116.08,0,0,1,457,400c1.37,1.9,2.7,3.84,4,5.84h0c.29.45.58.9.86,1.35a10.3,10.3,0,0,0-4.73,1,11.62,11.62,0,0,0-1.07.52c.09.63.21,1.27.35,1.91.24,1.14.56,2.28.92,3.43C461.93,428.54,475.09,444.26,468.5,458.12Z"/><path class="cls-11" d="M311.11,545.38l-.11.16-1.36,1.54a7.4,7.4,0,0,1-1.82,1.16c-4.9,2.27-12.45.32-17.35-.91-8.8-2.35-13.19-5.79-14.16-13h30.93C311.75,536.22,315,539.05,311.11,545.38Z"/><path class="cls-11" d="M286.57,580.83c-12.62.68-17.78-16.87-8.64-17.56a11.54,11.54,0,0,1,4.75.81L281,562.91c3.07,1.68,6.93,2.37,9.77,4a7.31,7.31,0,0,1,3.59,4.19C296.31,578.11,291.64,580.44,286.57,580.83Z"/><path class="cls-11" d="M277.22,659.52a10.83,10.83,0,0,1-5.43,2.69l-.59.14-.45.09c-2.39.49-4.83.78-6.77,1.76-5.85,3.12-5.85,4.67-11.3,10.13-.63.63-1.27,1.23-1.94,1.81-5.37,4.66-11.88,7.86-17.67,12.1a37.84,37.84,0,0,0-8.83,8.68c-2.8,4-4.2,8.53-5.45,13.23A90.39,90.39,0,0,1,215,722.61a29.29,29.29,0,0,1-3.58,6.26,24.38,24.38,0,0,1-1.8,2c-7.27,7.43-18.48,10.9-25.36,18.7a25.49,25.49,0,0,0-2.06,2.66c-3.12,5.06-2.73,11.69-7.79,16.75a18.6,18.6,0,0,1-1.56,1.4V733.58c1.94-2.41,3.87-5.51,6.62-9.78,4.68-7.79,13.25-23.37,21-28a23.5,23.5,0,0,1,4.13-2c7-2.58,10.19.44,13.45-7.91l.34-.19.07-.93c.24-.67.47-1.39.71-2.19,1.16-3.77,1.67-7,2.41-9.81,1.27-4.79,3.2-8.43,10-11.62l.37.49c2.79,3.61,3.32,1.52,7.42,3,.21-.74.43-1.49.66-2.26,3.13-10.67,7.28-24.47-1.44-33.19,2,.55,4.29,1.27,6.65,1.76a23.37,23.37,0,0,0,4.56.54,14.16,14.16,0,0,0,3-.23c.21,0,.41-.07.62-.12a12.82,12.82,0,0,1-.76-1.31c-4.95-9.4-3.49-27.25-2.75-37.65a19.25,19.25,0,0,1,3.89,1.64,21,21,0,0,1,4.68,3.43c0,5.81-.34,18.4,2.15,24.18a8.66,8.66,0,0,0,.58,1.14c3.51,5.45,10.13,3.11,15.58,7.79C283.45,636.54,283.45,653.29,277.22,659.52Z"/><path class="cls-6" d="M564.82,429.66a10.47,10.47,0,0,0,.62,1.47,4.22,4.22,0,0,0,.18-.45Zm0,0a10.47,10.47,0,0,0,.62,1.47,4.22,4.22,0,0,0,.18-.45Zm0,0a10.47,10.47,0,0,0,.62,1.47,4.22,4.22,0,0,0,.18-.45Zm0,0a10.47,10.47,0,0,0,.62,1.47,4.22,4.22,0,0,0,.18-.45Zm0,0a10.47,10.47,0,0,0,.62,1.47,4.22,4.22,0,0,0,.18-.45Zm0,0a10.47,10.47,0,0,0,.62,1.47,4.22,4.22,0,0,0,.18-.45Zm0,0a10.47,10.47,0,0,0,.62,1.47,4.22,4.22,0,0,0,.18-.45Zm0,0a10.47,10.47,0,0,0,.62,1.47,4.22,4.22,0,0,0,.18-.45Zm0,0a10.47,10.47,0,0,0,.62,1.47,4.22,4.22,0,0,0,.18-.45Zm0,0a10.47,10.47,0,0,0,.62,1.47,4.22,4.22,0,0,0,.18-.45Zm0,0a10.47,10.47,0,0,0,.62,1.47,4.22,4.22,0,0,0,.18-.45Zm0,0a10.47,10.47,0,0,0,.62,1.47,4.22,4.22,0,0,0,.18-.45Zm0,0a10.47,10.47,0,0,0,.62,1.47,4.22,4.22,0,0,0,.18-.45Zm0,0a10.47,10.47,0,0,0,.62,1.47,4.22,4.22,0,0,0,.18-.45Zm0,0a10.47,10.47,0,0,0,.62,1.47,4.22,4.22,0,0,0,.18-.45Zm0,0a10.47,10.47,0,0,0,.62,1.47,4.22,4.22,0,0,0,.18-.45Zm0,0a10.47,10.47,0,0,0,.62,1.47,4.22,4.22,0,0,0,.18-.45Zm0,0a10.47,10.47,0,0,0,.62,1.47,4.22,4.22,0,0,0,.18-.45Zm0,0a10.47,10.47,0,0,0,.62,1.47,4.22,4.22,0,0,0,.18-.45Zm0,0a10.47,10.47,0,0,0,.62,1.47,4.22,4.22,0,0,0,.18-.45Zm0,0a10.47,10.47,0,0,0,.62,1.47,4.22,4.22,0,0,0,.18-.45Zm0,0a10.47,10.47,0,0,0,.62,1.47,4.22,4.22,0,0,0,.18-.45Zm0,0a10.47,10.47,0,0,0,.62,1.47,4.22,4.22,0,0,0,.18-.45Zm0,0a10.47,10.47,0,0,0,.62,1.47,4.22,4.22,0,0,0,.18-.45Zm0,0a10.47,10.47,0,0,0,.62,1.47,4.22,4.22,0,0,0,.18-.45Zm0,0a10.47,10.47,0,0,0,.62,1.47,4.22,4.22,0,0,0,.18-.45Zm0,0a10.47,10.47,0,0,0,.62,1.47,4.22,4.22,0,0,0,.18-.45Zm0,0a10.47,10.47,0,0,0,.62,1.47,4.22,4.22,0,0,0,.18-.45Zm0,0a10.47,10.47,0,0,0,.62,1.47,4.22,4.22,0,0,0,.18-.45Zm0,0a10.47,10.47,0,0,0,.62,1.47,4.22,4.22,0,0,0,.18-.45Zm0,0a10.47,10.47,0,0,0,.62,1.47,4.22,4.22,0,0,0,.18-.45Zm0,0a10.47,10.47,0,0,0,.62,1.47,4.22,4.22,0,0,0,.18-.45Zm0,0a10.47,10.47,0,0,0,.62,1.47,4.22,4.22,0,0,0,.18-.45Zm0,0a10.47,10.47,0,0,0,.62,1.47,4.22,4.22,0,0,0,.18-.45Zm0,0a10.47,10.47,0,0,0,.62,1.47,4.22,4.22,0,0,0,.18-.45Zm0,0a10.47,10.47,0,0,0,.62,1.47,4.22,4.22,0,0,0,.18-.45Zm0,0a10.47,10.47,0,0,0,.62,1.47,4.22,4.22,0,0,0,.18-.45Zm0,0a10.47,10.47,0,0,0,.62,1.47,4.22,4.22,0,0,0,.18-.45Zm0,0a10.47,10.47,0,0,0,.62,1.47,4.22,4.22,0,0,0,.18-.45Zm0,0a10.47,10.47,0,0,0,.62,1.47,4.22,4.22,0,0,0,.18-.45Zm0,0a10.47,10.47,0,0,0,.62,1.47,4.22,4.22,0,0,0,.18-.45Zm0,0a10.47,10.47,0,0,0,.62,1.47,4.22,4.22,0,0,0,.18-.45Zm0,0a10.47,10.47,0,0,0,.62,1.47,4.22,4.22,0,0,0,.18-.45Zm0,0a10.47,10.47,0,0,0,.62,1.47,4.22,4.22,0,0,0,.18-.45Zm0,0a10.47,10.47,0,0,0,.62,1.47,4.22,4.22,0,0,0,.18-.45Zm0,0a10.47,10.47,0,0,0,.62,1.47,4.22,4.22,0,0,0,.18-.45Zm275.72,2.86a115.09,115.09,0,0,0-21.9-40.26c-9.47-11.84-21.31-20.12-35.52-26.63a99.35,99.35,0,0,0-22.71-7.19,136.71,136.71,0,0,0-25.83-2.29c-19.53,0-36.11,3-50.31,9.48a168,168,0,0,0-39.07,24.86V212.9h-100V409.5a18.53,18.53,0,0,1,5.52,7.87c1.88,1.68,3.26,3.37,3.52,4.91l-2.39.38c0,.26,0,.52.05.79a15.42,15.42,0,0,1-3.41-.25l-3.29.53v44.13h10.6l7.76,3.73a12.64,12.64,0,0,0,2.37-2.17,30.4,30.4,0,0,1,7.64,2.83l2.87-.1,5.46,7.4-3,3a12.28,12.28,0,0,1,1,.92,8.13,8.13,0,0,0-3.46,4.26l1.12,5.87-1.05,4.28h0c.66,4.57,1.12,8.88-2.75,11.23l-.87,3.57-11.69-3.89L552.33,498c-.32-.2-.61-.37-.86-.51l.21-.28-1.38-1.67,5.27-3.12a15.58,15.58,0,0,0,3.69-7.4,10.14,10.14,0,0,0-8.19-.11c-.56.19-1.12.41-1.68.62l-3.55,1.06c-.22,0-.45.07-.68.09v17.27l1.64.55,10.9,14h-5.84c-1.64-1.48-4.19-3.92-6.7-6.62v6.74a54.62,54.62,0,0,1,6.36,6c7.07,3.57,14.63,9,18.26,11.44l7.79,10.52v7.79l-2.11.23.16.16c-10.29,10.3-21.61-.5-30.46-11.82v140a56.91,56.91,0,0,0,5.14-14.07c.78-5.84-.78-13.24,2-18.31a10.45,10.45,0,0,1,3.32-3.74l9.4-15.26c1-7,1.43-15.29,3.92-20l.89-5,7-2.72.39,25.32-1.15,2a112.28,112.28,0,0,1-2.11,15.2c.41,9.09-2.9,15.3-7.83,21.36-6.29,9.87-12.39,11.52-14.62,23.76-.17,1.08-.29,2.4-.41,3.88h20.57c.38-.68.78-1.38,1.2-2.08,8-13.33,24.58-28.89,37.46-17,7,6.36,8.5,12.94,6.57,19.07H645.2v-25a24.14,24.14,0,0,1-2.71-2.64l-1,16.39-10.91-7.4-1.37-11.43v0A64.64,64.64,0,0,1,627.1,655L622,645.11l.78-17.14-6.54-6.21c-1.67.74-3.31,1.66-5,2.52l-2.91,2.91-1.07-1.07a15.52,15.52,0,0,1-4.78,1.07,52.12,52.12,0,0,0-.38-6.23l-2-2-.24-8.42c-.83-2.92-1.8-5.79-2.78-8.74a8.57,8.57,0,0,0-2,1.58l.78-5.46c.42,1.31.85,2.61,1.27,3.88.32-.18.67-.35,1-.52l-3.47-8.81,9-.39,12.08,5.45,13.63-4.67c2.34,3.9,8.57,18.31,10.52,22.59L641.34,628a59.3,59.3,0,0,0,3.86,5.7V601.39c-1.7-3.12-3-7-4.49-10.41l0,0a20.11,20.11,0,0,1-7-7l-6.23,2.34a44.93,44.93,0,0,1,2.71-3.95,14.58,14.58,0,0,0-4.27,2c4.15-4.91,6.85-11.3,11.63-14.86,0-.11,0-.22,0-.33-5.45-1.56-17.92-17.92-21.81-22.21L603.2,536.73c-5.11-1.66-10.77-3.12-12-4.59-4.13-4.13-3.86-13.68-3.83-20.24,1.37.33,1-.07,0-.66,0-1.23,0-2.33-.07-3.25v3.2c-1.12-.69-2.9-1.63-3.51-2a56.31,56.31,0,0,1,5-3c1-.52,2-1,3-1.43a21.5,21.5,0,0,1,4.55-1.43c10.13-1.95,6.23.78,14.41,2.34l1.31.21,6.1.18,4.67-4.68,7-1.55,6.24,3.11,4.28-2.34,4.91.49V458A136.3,136.3,0,0,1,673,439a66,66,0,0,1,14.72-5.33,70.46,70.46,0,0,1,16.06-1.78c14.8,0,25.46,4.74,33.15,13.62s11.25,21.9,11.25,37.89V695.94h100V483.43A173,173,0,0,0,840.54,432.52ZM596.66,634.2l-.39,12.86-4.67-6.62ZM596,574.72l.65-.51,16-2-.19.91a23,23,0,0,1,4.87,1,17.37,17.37,0,0,1-6.68,7.51l-.72,3.4-10.52,1.17-1.16-.79c-5.86,0-10.79-3-11-10A49.43,49.43,0,0,0,596,574.72Zm-8.7-1.68v2.34l-.09,0A16.1,16.1,0,0,1,587.31,573Zm-1.56,2.34c.45,0,.91,0,1.36.06C585.83,575.89,583.17,576.86,585.75,575.38Zm5.46-154.27a17.59,17.59,0,0,1-4.68,7l-.78,2.34L583,431c-6.34,4.43-14.4,6.19-17.6.13-.22.56-.46,1.12-.72,1.67l-.28-3.62-2.06-2.61,4.67-3.51,1.25-3.24c.66-4.53,1-9.16,1.58-13.66l-1.27-8,3.61-2.76a30.13,30.13,0,0,1,2.24-5C581.86,398.13,594.71,409,591.21,421.11Zm-26.39,8.55a10.47,10.47,0,0,0,.62,1.47,4.22,4.22,0,0,0,.18-.45Zm0,0a10.47,10.47,0,0,0,.62,1.47,4.22,4.22,0,0,0,.18-.45Zm0,0a10.47,10.47,0,0,0,.62,1.47,4.22,4.22,0,0,0,.18-.45Zm0,0a10.47,10.47,0,0,0,.62,1.47,4.22,4.22,0,0,0,.18-.45Zm0,0a10.47,10.47,0,0,0,.62,1.47,4.22,4.22,0,0,0,.18-.45Zm0,0a10.47,10.47,0,0,0,.62,1.47,4.22,4.22,0,0,0,.18-.45Zm0,0a10.47,10.47,0,0,0,.62,1.47,4.22,4.22,0,0,0,.18-.45Zm0,0a10.47,10.47,0,0,0,.62,1.47,4.22,4.22,0,0,0,.18-.45Zm0,0a10.47,10.47,0,0,0,.62,1.47,4.22,4.22,0,0,0,.18-.45Zm0,0a10.47,10.47,0,0,0,.62,1.47,4.22,4.22,0,0,0,.18-.45Zm0,0a10.47,10.47,0,0,0,.62,1.47,4.22,4.22,0,0,0,.18-.45Zm0,0a10.47,10.47,0,0,0,.62,1.47,4.22,4.22,0,0,0,.18-.45Zm0,0a10.47,10.47,0,0,0,.62,1.47,4.22,4.22,0,0,0,.18-.45Zm0,0a10.47,10.47,0,0,0,.62,1.47,4.22,4.22,0,0,0,.18-.45Zm0,0a10.47,10.47,0,0,0,.62,1.47,4.22,4.22,0,0,0,.18-.45Zm0,0a10.47,10.47,0,0,0,.62,1.47,4.22,4.22,0,0,0,.18-.45Zm0,0a10.47,10.47,0,0,0,.62,1.47,4.22,4.22,0,0,0,.18-.45Zm0,0a10.47,10.47,0,0,0,.62,1.47,4.22,4.22,0,0,0,.18-.45Zm0,0a10.47,10.47,0,0,0,.62,1.47,4.22,4.22,0,0,0,.18-.45Zm0,0a10.47,10.47,0,0,0,.62,1.47,4.22,4.22,0,0,0,.18-.45Zm0,0a10.47,10.47,0,0,0,.62,1.47,4.22,4.22,0,0,0,.18-.45Zm0,0a10.47,10.47,0,0,0,.62,1.47,4.22,4.22,0,0,0,.18-.45Zm0,0a10.47,10.47,0,0,0,.62,1.47,4.22,4.22,0,0,0,.18-.45Zm0,0a10.47,10.47,0,0,0,.62,1.47,4.22,4.22,0,0,0,.18-.45Zm0,0a10.47,10.47,0,0,0,.62,1.47,4.22,4.22,0,0,0,.18-.45Zm0,0a10.47,10.47,0,0,0,.62,1.47,4.22,4.22,0,0,0,.18-.45Zm0,0a10.47,10.47,0,0,0,.62,1.47,4.22,4.22,0,0,0,.18-.45Zm0,0a10.47,10.47,0,0,0,.62,1.47,4.22,4.22,0,0,0,.18-.45Zm0,0a10.47,10.47,0,0,0,.62,1.47,4.22,4.22,0,0,0,.18-.45Zm0,0a10.47,10.47,0,0,0,.62,1.47,4.22,4.22,0,0,0,.18-.45Zm0,0a10.47,10.47,0,0,0,.62,1.47,4.22,4.22,0,0,0,.18-.45Zm0,0a10.47,10.47,0,0,0,.62,1.47,4.22,4.22,0,0,0,.18-.45Zm0,0a10.47,10.47,0,0,0,.62,1.47,4.22,4.22,0,0,0,.18-.45Zm0,0a10.47,10.47,0,0,0,.62,1.47,4.22,4.22,0,0,0,.18-.45Zm0,0a10.47,10.47,0,0,0,.62,1.47,4.22,4.22,0,0,0,.18-.45Zm0,0a10.47,10.47,0,0,0,.62,1.47,4.22,4.22,0,0,0,.18-.45Zm0,0a10.47,10.47,0,0,0,.62,1.47,4.22,4.22,0,0,0,.18-.45Zm0,0a10.47,10.47,0,0,0,.62,1.47,4.22,4.22,0,0,0,.18-.45Zm0,0a10.47,10.47,0,0,0,.62,1.47,4.22,4.22,0,0,0,.18-.45Zm0,0a10.47,10.47,0,0,0,.62,1.47,4.22,4.22,0,0,0,.18-.45Zm0,0a10.47,10.47,0,0,0,.62,1.47,4.22,4.22,0,0,0,.18-.45Zm0,0a10.47,10.47,0,0,0,.62,1.47,4.22,4.22,0,0,0,.18-.45Zm0,0a10.47,10.47,0,0,0,.62,1.47,4.22,4.22,0,0,0,.18-.45Zm0,0a10.47,10.47,0,0,0,.62,1.47,4.22,4.22,0,0,0,.18-.45Zm0,0a10.47,10.47,0,0,0,.62,1.47,4.22,4.22,0,0,0,.18-.45Z"/><path class="cls-10" d="M554.2,422.28l-2.39.38a20.15,20.15,0,0,0-1.13-5.29C552.56,419.05,553.94,420.74,554.2,422.28Z"/><path class="cls-10" d="M548.45,423.2l-3.29.53v-1.21C546.26,422.77,547.36,423,548.45,423.2Z"/><path class="cls-10" d="M645.2,501.07v4.48c-7.92,3.11-24.28,1.68-33.21.31l6.1.18,4.67-4.68,7-1.55,6.24,3.11,4.28-2.34Z"/><path class="cls-10" d="M612.63,572.26l-.19.91c-5.48-.57-10.9.68-16.43,1.55l.65-.51Z"/><path class="cls-10" d="M610.63,581.72l-.72,3.4-10.52,1.17-1.16-.79A23.3,23.3,0,0,0,610.63,581.72Z"/><path class="cls-10" d="M637.51,569.48c0-.11,0-.22,0-.33-5.45-1.56-17.92-17.92-21.81-22.21L603.2,536.73a29.88,29.88,0,0,1,7.48,3.2c10.13,7.79,21,18.7,27.27,29.22A4.59,4.59,0,0,0,637.51,569.48Z"/><path class="cls-10" d="M640.71,591l0,0a20.11,20.11,0,0,1-7-7l-6.23,2.34a44.93,44.93,0,0,1,2.71-3.95C635.56,581,638.33,585.43,640.71,591Z"/><path class="cls-10" d="M576,631.15c.62-8.73.16-17.14-1.57-23.44-2.58,0-4.33,1.47-5.57,3.83l.89-5,7-2.72.39,25.32Z"/><path class="cls-10" d="M566.09,667.71q.48-.75,1-1.56c3-5.2,5.29-12.22,6.87-19.8C574.33,655.44,571,661.65,566.09,667.71Z"/><path class="cls-10" d="M565,631.56c-.6,4.32-1.39,8.17-3,10.43-1.77,2.53-4.19,3.25-6.42,4.83Z"/><polygon class="cls-10" points="596.66 634.2 596.27 647.06 591.6 640.44 596.66 634.2"/><path class="cls-10" d="M641.34,628c-.39-.67-.74-1.32-1.05-2-5.45-10.13-1.95-18.7-14.41-24.15-7.27-3-20.69-3.71-27.7-.54l-3.47-8.81,9-.39,12.08,5.45,13.63-4.67c2.34,3.9,8.57,18.31,10.52,22.59Z"/><path class="cls-10" d="M602.12,621l-2-2-.24-8.42A66.42,66.42,0,0,1,602.12,621Z"/><path class="cls-10" d="M611.26,624.28l-2.91,2.91-1.07-1.07A36.59,36.59,0,0,0,611.26,624.28Z"/><path class="cls-10" d="M622,645.11l.78-17.14-6.54-6.21a14.75,14.75,0,0,1,7.71-1.58c2.31,10.72,1.67,23.26,3.17,34.86Z"/><path class="cls-10" d="M642.49,667.68l-1,16.39-10.91-7.4-1.37-11.43A33.6,33.6,0,0,0,638.73,681a56.28,56.28,0,0,0,3.12-14Z"/><path class="cls-10" d="M577.57,546.55v7.79l-2.11.23c-9.5-9-15.38-20.66-23.94-30,7.07,3.57,14.63,9,18.26,11.44Z"/><path class="cls-10" d="M557.7,518.5h-5.84c-1.64-1.48-4.19-3.92-6.7-6.62v-7.95l1.64.55Z"/><path class="cls-10" d="M555.57,492.4c-1.24,1.55-2.62,3.07-3.89,4.79l-1.38-1.67Z"/><path class="cls-10" d="M573.77,509.09l-.87,3.57-11.69-3.89L552.33,498c5,3.21,17.31,13.74,21.35,11.17Z"/><path class="cls-10" d="M577.57,493.57l-1.05,4.28c-.51-3.48-1.13-7.11-.07-10.15Z"/><path class="cls-10" d="M581.86,479.55l-3,3a15.87,15.87,0,0,0-2.88-1.8c2-4.18.36-6.75-2.48-8.47l2.87-.1Z"/><path class="cls-10" d="M563.52,471.59a30.73,30.73,0,0,0-2.7,2.11c-4.71-4-10.77-.89-15.66-4.2v-1.64h10.6Z"/><path class="cls-10" d="M586.53,428.12l-.78,2.34L583,431A26.32,26.32,0,0,0,586.53,428.12Z"/><path class="cls-10" d="M568.3,419.82a49.73,49.73,0,0,1-2.68,10.86l-.8-1a12.21,12.21,0,0,1-.49-1.92l.11,1.44-2.06-2.61,4.67-3.51Z"/><path class="cls-10" d="M572.22,395.37a55.36,55.36,0,0,0-2.34,10.79l-1.27-8Z"/><path class="cls-11" d="M565.44,431.13c-.22.56-.46,1.12-.72,1.67l-.28-3.62-.11-1.44a12.21,12.21,0,0,0,.49,1.92A10.47,10.47,0,0,0,565.44,431.13Z"/><path class="cls-11" d="M551.86,423.45a15.42,15.42,0,0,1-3.41-.25c-1.09-.18-2.19-.43-3.29-.68v-13a18.53,18.53,0,0,1,5.52,7.87,20.15,20.15,0,0,1,1.13,5.29C551.83,422.92,551.85,423.18,551.86,423.45Z"/><path class="cls-11" d="M587.31,573v2.34l-.09,0A16.1,16.1,0,0,1,587.31,573Z"/><path class="cls-11" d="M587.11,575.44c-1.28.45-3.94,1.42-1.36-.06C586.2,575.41,586.66,575.43,587.11,575.44Z"/><path class="cls-11" d="M616.86,695.35H571.63c.38-.68.78-1.38,1.2-2.08,8-13.33,24.58-28.89,37.46-17C617.32,682.64,618.79,689.22,616.86,695.35Z"/><path class="cls-11" d="M576,631.15a112.28,112.28,0,0,1-2.11,15.2c-1.58,7.58-3.92,14.6-6.87,19.8q-.48.81-1,1.56c-6.29,9.87-12.39,11.52-14.62,23.76-.17,1.08-.29,2.4-.41,3.88h-5.9V682.94a56.91,56.91,0,0,0,5.14-14.07c.78-5.84-.78-13.24,2-18.31a10.45,10.45,0,0,1,3.32-3.74c2.23-1.58,4.65-2.3,6.42-4.83,1.59-2.26,2.38-6.11,3-10.43,1-7,1.43-15.29,3.92-20,1.24-2.36,3-3.83,5.57-3.83C576.19,614,576.65,622.42,576,631.15Z"/><path class="cls-11" d="M645.2,633.68v36.64a24.14,24.14,0,0,1-2.71-2.64l-.64-.75a56.28,56.28,0,0,1-3.12,14,33.6,33.6,0,0,1-9.55-15.71v0A64.64,64.64,0,0,1,627.1,655c-1.5-11.6-.86-24.14-3.17-34.86a14.75,14.75,0,0,0-7.71,1.58c-1.67.74-3.31,1.66-5,2.52a36.59,36.59,0,0,1-4,1.84,15.52,15.52,0,0,1-4.78,1.07,52.12,52.12,0,0,0-.38-6.23,66.42,66.42,0,0,0-2.19-10.37c-.83-2.92-1.8-5.79-2.78-8.74.32-.18.67-.35,1-.52,7-3.17,20.43-2.44,27.7.54,12.46,5.45,9,14,14.41,24.15.31.64.66,1.29,1.05,2A59.3,59.3,0,0,0,645.2,633.68Z"/><path class="cls-11" d="M597.15,601.85a8.57,8.57,0,0,0-2,1.58l.78-5.46C596.3,599.28,596.73,600.58,597.15,601.85Z"/><path class="cls-11" d="M617.31,574.21a17.37,17.37,0,0,1-6.68,7.51,23.3,23.3,0,0,1-12.4,3.78c-5.86,0-10.79-3-11-10a49.43,49.43,0,0,0,8.79-.73c5.53-.87,11-2.12,16.43-1.55A23,23,0,0,1,617.31,574.21Z"/><path class="cls-11" d="M645.2,505.55v95.84c-1.7-3.12-3-7-4.49-10.41-2.38-5.55-5.15-10-10.56-8.64a14.58,14.58,0,0,0-4.27,2c4.15-4.91,6.85-11.3,11.63-14.86a4.59,4.59,0,0,1,.44-.33c-6.23-10.52-17.14-21.43-27.27-29.22a29.88,29.88,0,0,0-7.48-3.2c-5.11-1.66-10.77-3.12-12-4.59-4.13-4.13-3.86-13.68-3.83-20.24,1.37.33,1-.07,0-.66,0-1.23,0-2.33-.07-3.25v3.2c-1.12-.69-2.9-1.63-3.51-2a56.31,56.31,0,0,1,5-3c1-.52,2-1,3-1.43a21.5,21.5,0,0,1,4.55-1.43c10.13-1.95,6.23.78,14.41,2.34l1.31.21C620.92,507.23,637.28,508.66,645.2,505.55Z"/><path class="cls-11" d="M575.62,554.73c-10.29,10.3-21.61-.5-30.46-11.82V518.62a54.62,54.62,0,0,1,6.36,6c8.56,9.32,14.44,21,23.94,30Z"/><path class="cls-11" d="M576.45,487.7c-1.06,3-.44,6.67.07,10.15h0c.66,4.57,1.12,8.88-2.75,11.23l-.09.06c-4,2.57-16.34-8-21.35-11.17-.32-.2-.61-.37-.86-.51l.21-.28c1.27-1.72,2.65-3.24,3.89-4.79a15.58,15.58,0,0,0,3.69-7.4,10.14,10.14,0,0,0-8.19-.11c-.56.19-1.12.41-1.68.62l-3.55,1.06c-.22,0-.45.07-.68.09V469.5c4.89,3.31,11,.22,15.66,4.2a30.73,30.73,0,0,1,2.7-2.11,12.64,12.64,0,0,0,2.37-2.17,30.4,30.4,0,0,1,7.64,2.83c2.84,1.72,4.46,4.29,2.48,8.47a15.87,15.87,0,0,1,2.88,1.8,12.28,12.28,0,0,1,1,.92A8.13,8.13,0,0,0,576.45,487.7Z"/><path class="cls-11" d="M591.21,421.11a17.59,17.59,0,0,1-4.68,7A26.32,26.32,0,0,1,583,431c-6.34,4.43-14.4,6.19-17.6.13a4.22,4.22,0,0,0,.18-.45,49.73,49.73,0,0,0,2.68-10.86c.66-4.53,1-9.16,1.58-13.66a55.36,55.36,0,0,1,2.34-10.79,30.13,30.13,0,0,1,2.24-5C581.86,398.13,594.71,409,591.21,421.11Z"/><path class="cls-12" d="M61.68,702.71a61.89,61.89,0,0,1-24.59-4.57c-8.49-3.54-14.7-7.67-19.52-13-5.33-4.82-9.48-11-13-19.52a60.46,60.46,0,0,1-4.56-24c0-9,1.51-16.72,4.64-23.58a64.53,64.53,0,0,1,12.94-18.76,60.38,60.38,0,0,1,19.51-13,63.72,63.72,0,0,1,24.59-4.57,63.63,63.63,0,0,1,24.58,4.57,60.21,60.21,0,0,1,19.52,13A55.78,55.78,0,0,1,119.31,618c3.83,8.44,4.64,17.48,4.64,23.58a60.33,60.33,0,0,1-4.57,24c-2.95,7.09-7,12.93-13.6,19.51a77.42,77.42,0,0,1-19.34,13A62.12,62.12,0,0,1,61.68,702.71Zm0-109.27a52,52,0,0,0-20.07,3.66,48.57,48.57,0,0,0-15.73,10.49A52.54,52.54,0,0,0,15.33,622.9c-2.41,5.3-3.58,11.42-3.58,18.71a49.15,49.15,0,0,0,3.65,19.48c2.93,7,6.08,11.8,10.23,15.49l.49.48c3.69,4.15,8.47,7.31,15.49,10.24A50,50,0,0,0,61.68,691a49.93,49.93,0,0,0,20.06-3.66,65.1,65.1,0,0,0,16-10.72c5.18-5.19,8.49-9.9,10.82-15.49a49.22,49.22,0,0,0,3.66-19.48,46.24,46.24,0,0,0-3.59-18.71,44.62,44.62,0,0,0-10.89-15.08,49.07,49.07,0,0,0-16-10.72A52,52,0,0,0,61.68,593.44Z"/><path class="cls-12" d="M280.8,802.57H170.36V585.8H112.78V526.48h57.58v-8.23H112.78V458.92h57.58v-104h67c7.94,0,14.17,1.65,19,5,6.24,3.7,9.54,10.41,11.21,15.43L271.85,390c4.24-4.14,8.87-8.3,14-12.57,6.38-5.31,14.2-10.22,24.63-15.43a140.07,140.07,0,0,1,28.22-10.43,137.86,137.86,0,0,1,33.15-3.7c18.94,0,35.58,3.87,50.88,11.83A114.65,114.65,0,0,1,463,395a173.93,173.93,0,0,1,26.15,55.32c.61,2.14,1.09,4.32,1.55,6.51.11.51.22,1,.34,1.52h45.91v58.74H498.15v8.23h38.77v59.33h-46.3c-.4,1.53-.85,3-1.3,4.46s-.94,3-1.34,4.6a191,191,0,0,1-30.43,57.4,140.72,140.72,0,0,1-46.65,38.07c-17.36,9-37.63,13.55-60.2,13.55-17.17,0-32.09-2.64-45.65-8.06a151.41,151.41,0,0,1-24.25-13.43Zm-98.69-11.75h86.94V656.27l9.74,8.54c8.15,7.13,18.24,13.36,30.85,19,11.91,4.76,25.42,7.12,41.06,7.12,20.67,0,39.13-4.13,54.87-12.27,16.5-8.25,30.47-19.65,42.77-34.89a179.08,179.08,0,0,0,28.38-53.39c.32-1.37.85-3.1,1.37-4.79A45.24,45.24,0,0,0,480,578l.64-5.15h44.55V537.05H486.4V505.33h38.77V470.08H482l-1.22-4.26c-.62-2.18-1.1-4.37-1.56-6.55-.42-1.93-.82-3.86-1.38-5.79a161.87,161.87,0,0,0-24.37-51.63,103,103,0,0,0-36.13-31.71c-13.59-7.07-28.46-10.5-45.46-10.5a126,126,0,0,0-30.3,3.35,128.76,128.76,0,0,0-25.82,9.54c-9.59,4.8-16.7,9.23-22.37,14a205,205,0,0,0-20,18.84l-7,7.68-10-34.09c-1.4-4.16-3.64-7.48-6.09-8.88l-.5-.32c-2.84-2-6.92-3-12.45-3H182.11v104H124.53V506.5h57.58v31.72H124.53v35.84h57.58Zm144.5-161a93.25,93.25,0,0,1-29.47-5,68,68,0,0,1-26.68-19.37l-1.41-1.65v-31h121l-2,7.39c-2.61,9.8-6.5,18-11.55,24.35-6.61,9.22-13.88,15.57-22.2,19.42A66.65,66.65,0,0,1,326.61,629.86ZM280.8,599.44a55.39,55.39,0,0,0,20.38,14.39c16.71,5.55,34.65,5.8,48.23-.46,6.47-3,12.24-8.12,17.66-15.7l.19-.26a48,48,0,0,0,7.1-12.78H280.8Zm115.13-61.81H269.05V505.92H395.93ZM280.8,525.88H384.18v-8.22H280.8Zm109.77-56.39H269.05V458.66l1.24-1.59A101.61,101.61,0,0,1,284,442.71c4.43-4.45,9.88-7.78,15.06-10.66a61.16,61.16,0,0,1,18.15-6.5,103.69,103.69,0,0,1,20.55-2.46,59.6,59.6,0,0,1,24.16,5.22c6.79,3.08,12.79,8.79,18.91,17.95a85.33,85.33,0,0,1,7.15,15.5ZM285.23,457.74h88.44c-.82-1.7-1.76-3.46-2.81-5.31-4.56-6.81-9.14-11.31-13.78-13.42a47.48,47.48,0,0,0-19.3-4.18,91.76,91.76,0,0,0-18.24,2.24,49.59,49.59,0,0,0-14.75,5.25c-5.12,2.85-9.26,5.47-12.79,9C289.62,453.37,287.35,455.54,285.23,457.74Z"/><path class="cls-12" d="M852.37,698h-111V481.24c0-14.95-3.27-26.3-9.72-33.75-6.79-7.83-15.83-11.48-28.46-11.48a60.92,60.92,0,0,0-27.91,6.43,126.34,126.34,0,0,0-24.37,16.25V697.42h-111V206.91h111v170A173.41,173.41,0,0,1,681.33,359c14.59-6.68,31.72-9.93,52.38-9.93,19.47,0,36,3.25,50.62,9.93,16,7.36,27.93,16.29,37.39,28.11A119.22,119.22,0,0,1,844.48,429a177.53,177.53,0,0,1,7.89,52.25Zm-99.28-11.75h87.53v-205a165.92,165.92,0,0,0-7.37-48.79,109,109,0,0,0-20.62-37.89c-8.35-10.44-18.88-18.31-33.2-24.88-13-6-28-8.86-45.72-8.86-18.94,0-34.47,2.9-47.48,8.86a162.08,162.08,0,0,0-37.42,23.81l-9.68,8.22v-183H551.6v467h87.53V453.3l2-1.75A140,140,0,0,1,670,431.93a72.54,72.54,0,0,1,33.17-7.67c16.06,0,28.28,5.08,37.34,15.54,8.35,9.64,12.59,23.59,12.59,41.44Z"/></svg>