<?xml version="1.0" encoding="utf-8"?>
<!-- Generator: Adobe Illustrator 26.3.0, SVG Export Plug-In . SVG Version: 6.00 Build 0)  -->
<svg version="1.1" id="Layer_1" xmlns="http://www.w3.org/2000/svg" xmlns:xlink="http://www.w3.org/1999/xlink" x="0px" y="0px"
	 viewBox="0 0 713 280.1" style="enable-background:new 0 0 713 280.1;" xml:space="preserve">
<style type="text/css">
	.st0{fill-rule:evenodd;clip-rule:evenodd;fill:#F48787;enable-background:new    ;}
	.st1{fill-rule:evenodd;clip-rule:evenodd;fill:#D6D670;enable-background:new    ;}
	.st2{fill-rule:evenodd;clip-rule:evenodd;fill:#81B9EF;enable-background:new    ;}
	.st3{display:none;}
	.st4{display:inline;fill:#1B4A9C;}
	.st5{fill:#E0DA00;}
	.st6{fill:#1B4A9C;}
	.st7{fill:#DD3E3E;}
</style>
<g id="Layer_2">
	<g id="Layer_44">
	</g>
	<g id="Layer_43">
	</g>
	<g id="Layer_42">
	</g>
	<g id="Layer_41">
	</g>
	<g id="Layer_40">
	</g>
	<g id="Layer_39">
	</g>
	<g id="Layer_38">
	</g>
	<g id="Layer_37">
	</g>
	<g id="Layer_36">
	</g>
	<g id="Layer_35">
	</g>
	<g id="Layer_34">
	</g>
	<g id="Layer_33">
	</g>
	<g id="Layer_32">
	</g>
	<g id="Layer_31">
	</g>
	<g id="Layer_30">
	</g>
	<g id="Layer_29">
	</g>
	<g id="Layer_28">
	</g>
	<g id="Layer_27">
	</g>
	<g id="Layer_26">
	</g>
	<g id="Layer_25">
	</g>
	<g id="Layer_24">
	</g>
	<g id="Layer_23">
	</g>
	<g id="Layer_22">
	</g>
	<g id="Layer_21">
	</g>
	<g id="Layer_20">
	</g>
	<g id="Layer_19">
	</g>
	<g id="Layer_18">
	</g>
	<g id="Layer_17">
	</g>
	<g id="Layer_16">
	</g>
	<g id="Layer_15">
		<g>
			<path class="st0" d="M89.6,189.3l-1.1,1.4l-1.5,0.6l-1.4-5.7l1.2-4.1l-0.1-5.9c0.5-1.6,0.9-4.8,0.8-6.5c-1.1-0.1-4.1-1.3-5.2-1.7
				l0.7-2.1l3.5-0.9l3.3,3.3l2.5,1l-0.6,1.4c1.2,0.3,4.3,0.1,5.5,0c0,0,2.4,0.7,2.4,0.7l2,3.1l2.2-2.8l2-1.3l1.5,2.5l-0.6,2.9
				l-1.9,1.4l-1.7,3.6l-4.1,3.4l-1.4,2.3h-1.8l-0.4,1.1l-2.2-0.1L89.6,189.3L89.6,189.3z"/>
			<polygon class="st0" points="98.1,187 95.3,187.9 94.2,191.3 96.2,193 99.2,189.9 99.4,187.7 98.1,187 			"/>
			<polygon class="st0" points="127.1,186.2 127,189.5 125.8,187.8 127.1,186.2 			"/>
			<path class="st0" d="M112,209l2.6-3l1.2-7.3c3.3-4,6.6-5.8,5.1-11.7l1.2-2.1l-0.1-6.5l-1.8,0.7l-1.1,6.2l-3.2,5.2
				c0,2.3-1.1,6.7-1.9,8.8c0,0-2.6,3.2-2.6,3.2C111.2,204.2,111.4,207.4,112,209L112,209z"/>
			<polygon class="st0" points="108.4,207.4 107.9,200.8 110,191.1 113.1,187.9 113.2,185.1 110.6,183.1 109,184.1 106.8,183 
				104.1,184.9 104.1,188.1 102.1,191.2 102.7,195.8 100.9,199.7 95.5,201.1 94,203.2 95,208.5 97.3,208.9 101.2,211.4 104.7,211.6 
				104.8,215.5 107.4,216.9 110.5,215 110.6,211.9 108.4,207.4 			"/>
			<polygon class="st0" points="117,212.9 118.1,213.8 117.8,215.8 115.1,216.9 112.9,215.3 113.9,213.3 			"/>
			<polygon class="st0" points="127.5,197.1 129.5,197 131.4,198.7 131.7,202.3 130.4,204.6 125.3,206.9 121,207.2 121.3,205.6 
				119.6,203.3 121.6,200.5 			"/>
			<polygon class="st0" points="131.2,170.3 130.5,173.6 127.8,173.9 125.3,172.2 127.1,170.8 			"/>
			<path class="st0" d="M138.4,175.1l2.8,1.7l1,2.4c0.8,0.1,5.5,0.1,6.1,0.8l0.8-0.9l1.8,0.8l-1.6-2.1l-1.1-3.1l-1.9-1.7l0.2-4.9
				c-0.1-1.4-0.9-6.7-0.2-8c-2.4-1.5-4.6-5.6-6-8l-2-0.2l-1.1,0.6l-1.6-0.8l-1.8,0.4l-1.2,1.2l-3.4-0.1l-2.7,0.1l-1.4-0.7l-0.1,2.3
				l2.7,5.4l4.3,3.5c1,1.1,4.2,5.3,5.6,5.7c-0.2,1.5-1.9,3.2-2.6,4.4l1.6-0.6C136.9,173.9,137.8,174.8,138.4,175.1L138.4,175.1z"/>
			<path class="st0" d="M135.5,175.6l-3.5,1.2l-3.1-1.4l-2.3,0.1l1.3,3.3l0.1,3.5l2.1,2.1l1.7-1.7l2,1.9l-0.2,4.4l1.6,3.1l0.6,5
				l2.8,1.9l0.3-4.8l1.9,2.5l3-0.8l0.3-2.6l-3-5.1l-2.3-1.6l-0.6-5.2C137.7,180.3,136.1,176.6,135.5,175.6L135.5,175.6z"/>
			<polygon class="st0" points="152.3,184.1 153.8,183.7 152.8,182.6 151.5,182.8 152.3,184.1 			"/>
			<polygon class="st0" points="152.8,187.3 150.7,186 150.8,187.9 152,188.7 152.8,187.3 			"/>
		</g>
	</g>
	<g id="Layer_14">
	</g>
	<g id="Layer_13">
	</g>
	<g id="Layer_12">
	</g>
	<g id="Layer_11">
	</g>
	<g id="Layer_10">
		<g>
			<polygon class="st1" points="143.2,197.6 144.9,200.7 145,203.3 142.6,200.6 143.2,197.6 			"/>
			<polygon class="st1" points="133.5,211.3 136.5,213.8 136,216.8 133.5,215.2 132.8,213.1 133.5,211.3 			"/>
			<polygon class="st1" points="152.2,203.9 153,200 150.7,197.2 150.6,194 151.8,193.2 150.9,191.3 149.2,192 148.6,195.8 
				150.5,200 150,202.1 150.7,203.7 			"/>
			<polygon class="st1" points="155.9,205 155.5,206.9 157,208.5 157.6,206.4 155.9,205 			"/>
			<path class="st1" d="M158.3,197.4c-0.2,1.1-0.7,4.2-1.3,5.1l1.7,2.2l2.4-0.9C160.6,202.1,159.2,198.9,158.3,197.4L158.3,197.4z"
				/>
			<path class="st1" d="M91.7,257.3l-3.6-3.8l2.3-4.8l1-4.9l-1.1-2.5l3.1-3.7l3.3-0.9l2.5-2.5l3.2,1l4.8-1l-1.5-2.8l1.6-3.1l3.9-1.7
				l2-3l2.7-0.3l4.6,3.8l0.2,5.7l-3.5,5.4l3-3c2-0.2,5.5-1.8,7.2-2.8l1.8-5.8l3.6-1.5l1.7,3.8l2.1-1l0.4-2.7l-1.4-1l1.7-6.7
				c1.5,0.5,4.7,1.9,5.8,3.1l0.9-1.6v-4.3l1.2-0.2l2.6,2.8c0.5-1.8-1-7.5-1.4-9.3c0,0,0.1-3.8,0.1-3.8c0.8,0.2,3,0.8,3.8,0.4
				l0.7,2.8c2.1,1.6,6.3,5.1,8,7.1l2.2-2l-0.1,2.6l2.5,3.7v4.3l-2.3-0.4l-0.5,1.8l2,2.5l1.4,0.1c-0.3,1.3-0.2,4.8-0.1,6.2l1.2-2
				c0.4,1.9,0.6,5.8,0.5,7.7c1,1.4,3,4.5,3.9,6c0,0,0.6,5.5,0.6,5.5l-1.7,4.6l-1.4-0.1l0.1,2.1l-1.2-2.2l-1.9,0.3l-0.6,2l1.2,5
				c-0.2,1.5-0.5,4.8-0.5,6.2c-1.5-2.8-3.2-7.5-2.7-10.7l-1.6-2.6l-0.8-3.4l-2.4-3.4l-2.3,1.4c-1,1.8-4.9,8-4.9,10.1l3,2.2
				c0.6,1.6,2.2,5.4,3.4,6.7l-0.2,3.5c-1.3,1.7-5.1,7-7.1,7.9c-1-0.8-1.9-3.5-2.2-4.6l1.2-2l-1.1-1.4l-1.7,1.3l-0.4,1.9l-2.8,1.6
				l-3.5-1.5l-3-2.7h-3.8l-3.2-3.7l-0.6-2.8l-2.4-3.2l0.7-2.1l-0.4-2.7l-1.6-1.9l1.5-2l-0.2-1.8l1.4-0.7l3,1.1l-2.7-2.7l-0.7-2.9
				l-3.2-2.7l-2.9-0.6l-3.2-2.8l-1.6-0.1l-1.4,1.5l0.7,1.5l-1.1,1.5l1.8,2.6c-1.2,0.2-3.2-1.6-4.1-2.2l-1.8,0.3l0.9-2.1l-1.7-0.6
				l-1.3,1.1l-0.3,3.1l-1.7-1.1l-1.6,0.9l-1.1-1l0.7-3.5l-2.3-2.2l-1.9,0.9l-1.9,4.2l-2,1.7C94.6,249.5,92.5,255.7,91.7,257.3
				L91.7,257.3z"/>
			<path class="st1" d="M86.4,261.6l0.1,1.7l2,3.1l2,0.6l4.3-3.9l0.3-1.2c-1.1-0.3-3.1-1.4-4-2.1l-1.7,1.5L86.4,261.6L86.4,261.6z"
				/>
		</g>
	</g>
	<g id="Layer_9">
	</g>
	<g id="Layer_8">
	</g>
	<g id="Layer_7">
	</g>
	<g id="Layer_6">
	</g>
	<g id="Layer_5">
	</g>
	<g id="Layer_4">
	</g>
	<g id="Layer_3">
		<g>
			<polygon class="st2" points="60.9,35.5 65.2,35.5 62.5,37 60.9,35.5 			"/>
			<polygon class="st2" points="58.7,28.1 61,30.3 57.8,30.9 58.7,28.1 			"/>
			<polygon class="st2" points="65.9,23.4 63.3,25.3 65.4,27.2 65.9,23.4 			"/>
			<path class="st2" d="M73.3,31.9l-2.1,2.6l2,1.6l1.4-2.5C74.5,33.6,73.2,31.9,73.3,31.9z"/>
			<path class="st2" d="M74.8,118.9l2.7,2.1l1.6,3.3l3.9,1.4l2.7-0.9l0.7-2.7l4.6-3.6l3.3-0.1l5.1,3.2l2,4l-0.4,3.6l1.6,1.7l2.3-1.5
				l-0.2-3.3l1.5-1.2l1.9,3.3l4.1,0.2c0.9,0.6,3.8,2.2,4,3.4l-2.5,0.4l-1.7-1l-1.7,1.1c0.2,2,2.2,7,3,8.9c0,0-0.1,2.3-0.1,2.3h3.4
				l2.5,1.2l2.8-0.1l1.4,1.9l-1.5,1.5l0.4,2.1L121,155l-3-1l-2.8-3.4l2.7-1.6l0.2-1.7l-2.8-0.6l0.1,1.2l-3,0.9l-3.8-4.4l-2.6-0.9
				v-3.7l-1.4-3.2l-4.9-1.8l-2.2-3.9l-2.2-1.1l-2-2l-1.8-0.4l-0.5,1.7l3.6,6.3l1.1,5.7l-1.4,0.2l-3.3-5.7l-3.8-2.7l-1.4-2.6l-7-2.8
				l-3.9,0.4l-1.5,2.2l0.7,2.3l-3.2,2l-3.9-3.9l-2.3,2.1l-2.7,0.6l1.6-2.8l-1.4-3l-2,0.7l-1,3.5l-2.2-3.8c0.2-1.4,0.6-4.8,0-6.1
				c1.3-1.4,4.4-5.5,5.6-7l-3-2.2l-3.7-0.4l-0.1,2.1l1.9,2l-2,2.6l-2.2-0.1l-3.3-4.3l-0.1-3.4l-1.4-0.5l-1.2,1l-1.5-1.1l-0.1-6.2
				l-2.6-4.7l-1.2-4.9l1.2-2.3l-0.6-1.2l-2-0.1l-0.9-3.7l0.5-4.2l2.3,2.8l3,0.5l2.5-1.4v-2.2l-2.7-5.7c3-6.9,4.9-16.5,2.5-23.8
				l3.5-6.9l0.6-3.8l4.9-1.7l6.5,1.2l2.8,3.2l2.5,1.6l0.9-1.7h4.8l2.3-2l0.2-1.6l1.6-0.6l2.2,3l-0.2,2.5l-2,2.3l-0.7,6.7l3.1,5.3
				l2,0.7l1.1,4.3l1.7,2.1l-1.6,8L82,80.8l1,4.1l-2.8,4.6l-0.3-1.7l1.1-2.5c-1.7,0.5-6.1,5.1-7.4,6.3c0,0-1.2,3.1-1.2,3.1l0.4,3.8
				l-1.7,2.6l-0.6,4.2l1.8,1.5l1.7,4.4l2.2,2.5l-1.4,2L74.8,118.9L74.8,118.9z"/>
			<polygon class="st2" points="81.1,120.1 81.7,122.9 84.2,124.3 83.6,121.7 81.1,120.1 			"/>
			<polygon class="st2" points="78.1,107.2 79.8,111.8 79.3,113.3 79.9,115.6 82.2,113.4 82.6,108.2 84.3,106.5 82.1,104.9 
				78.1,107.2 			"/>
			<polygon class="st2" points="47.8,128.8 48.2,131.2 52.4,133 53.3,132.1 50.2,128.8 47.8,128.8 			"/>
			<polygon class="st2" points="53.7,136.3 54.4,137.9 56.7,137.8 57.6,141.9 59.9,142.8 62.1,145.8 62.1,151.1 64.8,152.7 
				64.9,155.8 68.2,159.9 71,160.4 74.1,157.8 74.1,155.1 75.7,154 75.7,151 74,148.4 75.2,146.1 75.2,143 71.7,141.6 64.6,135.3 
				60.5,136.3 56.6,134.8 53.7,136.3 			"/>
			<polygon class="st2" points="121.6,124.3 119.9,125.6 120.5,129.4 119.5,132 118.3,132.9 119.8,134.8 124.3,133.9 125.5,130.3 
				123.9,126.8 121.6,124.3 			"/>
			<path class="st2" d="M80.1,138.3l4,2.7c0.3-1.2,1.3-2.8,2.1-3.6l-1.7-2.9l-3.1-1.2l-1.8,2.5L80.1,138.3L80.1,138.3z"/>
			<path class="st2" d="M86.9,151.3c-0.5,1.8-2.3,4.8-3.5,6.2l1.8,4.4l2.1-0.7l1.3-4.3l-1.2-3l0.8-3.9L86.9,151.3L86.9,151.3z"/>
			<polygon class="st2" points="94.8,154.1 93.3,155.2 93.7,157.2 96.9,157 97.1,155.3 94.8,154.1 			"/>
			<polygon class="st2" points="105.5,145.6 102,142.1 100.7,142.4 100.6,144.4 105.1,149.2 105.9,147.6 105.5,145.6 			"/>
			<path class="st2" d="M111.9,152.1c0.4,1.2,2.7,3.5,3.7,4.4h1.5l-2.8-3.6L111.9,152.1L111.9,152.1z"/>
			<path class="st2" d="M106.3,164.4l2.8-4.5l2.5-0.3l3.7,4.7l4.2,1.7l2.7-0.3v-2l-2-2.7c-1.5-1-5.6-4-7.6-3.8l-3-2.8l-1.2,0.1
				l0.3-1.1l-2.4-0.7c-0.1,1.7,0.2,5,0.8,6.5l-1.5,1.3l-0.1,2L106.3,164.4L106.3,164.4z"/>
			<path class="st2" d="M47.3,163c-1-0.9-2.2-3.1-2.7-4.3l1.1-1.4l2.7,0.4l2,2.3l3.5,0.7l0.7,1.8l-1.5,1.7l-2.2-1L47.3,163L47.3,163
				z"/>
			<path class="st2" d="M45.2,164.5l3.5,1l1.1,2.5c-0.8,0.4-2,1.6-2.4,2.4h-1.5l-1-3.9L45.2,164.5L45.2,164.5z"/>
			<path class="st2" d="M47.4,190.4l1.3-1l0.6-1.4c0.4,0.8,1.6,2.1,2.4,2.6l-0.1,1.9c-1.3,0.1-3.8,0.1-5-0.1L47.4,190.4L47.4,190.4z
				"/>
			<path class="st2" d="M5.7,228.5l3.3-2.7l2.3-0.4l2.2-2.3l3.7-1.4l3.8-5.8l3.9-1.4l2.7-2.3l0.2-1.7l2.3-2.8v-5.2l2-2.3l5.2-0.4
				l1.2-3.4l2.5-2.5l2.7-0.5l1.5-2.8l-1.9-4.2l-2.5-3.1c0.3-1.9,0-6.2-0.2-8.1l-1.5,0.6l-0.7,5.3l0.5,4.9l-2.6-1.6l2.1,3.3l-0.1,2.5
				l-2.8,3.3l-2.2-0.3l-3.1,3.6l-0.2,2.6l-3.5,2l-3.5,7.3l-4.9,4.8l-2.7,0.4l-2.5,4.7l-2,0.6c-0.9,1.2-5.4,6.8-5.8,8.1L5.7,228.5
				L5.7,228.5z"/>
			<polygon class="st2" points="6.3,230.3 4.6,232 6.1,231.7 6.3,230.3 			"/>
			<polygon class="st2" points="7.9,230.8 6.8,232 8.6,233 7.9,230.8 			"/>
			<path class="st2" d="M3.1,234.8l-3,1.1L0,238.2l1.9,3.2h1.6c0-1.1-0.1-4.8,0.7-5.7L3.1,234.8z"/>
		</g>
	</g>
</g>
<g class="st3">
	<path class="st4" d="M22.2,15.4V0.1h5.7c1,0,1.8,0,2.3,0.1c0.7,0.1,1.4,0.4,1.9,0.7c0.5,0.3,0.9,0.8,1.2,1.5
		c0.3,0.6,0.5,1.3,0.5,2.1c0,1.3-0.4,2.4-1.2,3.3s-2.3,1.4-4.5,1.4h-3.9v6.2L22.2,15.4L22.2,15.4z M24.2,7.4h4
		c1.3,0,2.2-0.3,2.8-0.7c0.5-0.5,0.8-1.2,0.8-2c0-0.6-0.2-1.2-0.5-1.6C31,2.6,30.6,2.3,30,2.2c-0.4-0.1-1-0.1-1.9-0.1h-3.9L24.2,7.4
		L24.2,7.4z M41,15.4V0.1h2v6.3h7.9V0.1h2v15.3h-2V8.2H43v7.2H41L41,15.4z M61.2,15.4V0.1h2v15.3H61.2L61.2,15.4z M71.3,15.4V0.1h2
		v13.5h7.5v1.8H71.3L71.3,15.4z M88.2,15.4V0.1h2v15.3H88.2L88.2,15.4z M98.3,15.4V0.1h5.7c1,0,1.8,0,2.3,0.1
		c0.7,0.1,1.4,0.4,1.9,0.7c0.5,0.3,0.9,0.8,1.2,1.5c0.3,0.6,0.5,1.3,0.5,2.1c0,1.3-0.4,2.4-1.2,3.3s-2.3,1.4-4.5,1.4h-3.9v6.2
		L98.3,15.4L98.3,15.4z M100.3,7.4h4c1.3,0,2.2-0.3,2.8-0.7c0.5-0.5,0.8-1.2,0.8-2c0-0.6-0.2-1.2-0.5-1.6c-0.3-0.5-0.7-0.8-1.3-0.9
		c-0.4-0.1-1-0.1-1.9-0.1h-3.9L100.3,7.4L100.3,7.4z M117.1,15.4V0.1h5.7c1,0,1.8,0,2.3,0.1c0.7,0.1,1.4,0.4,1.9,0.7
		c0.5,0.3,0.9,0.8,1.2,1.5c0.3,0.6,0.5,1.3,0.5,2.1c0,1.3-0.4,2.4-1.2,3.3c-0.8,0.9-2.3,1.4-4.5,1.4h-3.9v6.2L117.1,15.4L117.1,15.4
		z M119.1,7.4h4c1.3,0,2.2-0.3,2.8-0.7c0.5-0.5,0.8-1.2,0.8-2c0-0.6-0.2-1.2-0.5-1.6c-0.3-0.5-0.7-0.8-1.3-0.9
		c-0.3-0.1-1-0.1-1.9-0.1h-3.9V7.4L119.1,7.4z M136.2,15.4V0.1h2v15.3H136.2L136.2,15.4z M146.3,15.4V0.1h2.1l8,12v-12h1.9v15.3
		h-2.1l-8-12v12H146.3L146.3,15.4z M166.3,15.4V0.1h11.1v1.8h-9v4.7h8.4v1.8h-8.4v5.2h9.4v1.8H166.3L166.3,15.4z M184.4,10.5
		l1.9-0.2c0.1,0.8,0.3,1.4,0.6,1.9c0.3,0.5,0.9,0.9,1.5,1.2c0.7,0.3,1.5,0.5,2.3,0.5s1.4-0.1,2-0.3c0.6-0.2,1-0.5,1.3-0.9
		s0.4-0.8,0.4-1.3s-0.1-0.9-0.4-1.3s-0.7-0.7-1.4-0.9c-0.4-0.2-1.3-0.4-2.7-0.7c-1.4-0.3-2.4-0.7-3-1c-0.7-0.4-1.3-0.9-1.6-1.4
		c-0.3-0.6-0.5-1.2-0.5-1.9c0-0.8,0.2-1.5,0.6-2.2s1.1-1.2,1.9-1.5s1.8-0.5,2.8-0.5c1.1,0,2.1,0.2,3,0.5c0.9,0.4,1.5,0.9,2,1.6
		s0.7,1.5,0.7,2.4l-1.9,0.2c-0.1-1-0.5-1.7-1.1-2.2s-1.5-0.7-2.6-0.7c-1.2,0-2.1,0.2-2.7,0.7s-0.8,1-0.8,1.6s0.2,1,0.6,1.4
		s1.4,0.7,3,1.1s2.8,0.7,3.4,1c0.9,0.4,1.5,0.9,2,1.6c0.4,0.6,0.6,1.4,0.6,2.2c0,0.8-0.2,1.6-0.7,2.3c-0.5,0.7-1.1,1.3-2,1.7
		c-0.9,0.4-1.9,0.6-2.9,0.6c-1.4,0-2.5-0.2-3.5-0.6c-0.9-0.4-1.7-1-2.2-1.8C184.7,12.5,184.4,11.5,184.4,10.5z"/>
</g>
<g>
	<g>
		<path class="st5" d="M88.4,254.2c0-0.4-0.1-2.1-0.3-2.8c1.1-1,3.1-4.7,3.6-6.1c1-2.7-1.3-3.6-1-5.8c0.4-3.7,3-1.6,4.6-2.3
			c1.5-0.6,2.4-2.8,3.9-4c1.7,3.2,6.6-0.5,9.1-1c-2.5-3.9-2.3-4,1.6-6.2c2.4-1.4,3.3-3.1,6.3-2.2c5.5,1.8,4.4,8.5,2.3,12.7
			c2.8-1.1,6.6-0.6,8.9-2.9c1.7-1.7,1.1-3,2-4.9c1.1-2.6,2.6-2.4,4.5-4.2c-0.1,1.6-0.3,3.4,1.4,4c1.4-1.1,2.4-3.1,0.3-3.9
			c-0.2-2.4,0.7-5.9,1.6-8.1c2-0.5,2.6,1,2.3,2.9c0.9,0.4,1.4,0.4,2.3,1c0.9-1.1,0.6-5.2,2.2-5.5c1.1-0.2,2.2,2.2,3.2,2.6
			c0.4-3.4-1.9-9.3-0.4-12.5c2.7-5.4,4.8,0.1,3.7,2.9c1.6,1,3.5,2.1,4.9,3.4c1.8,1.6,2.7,4.1,4.9,1.7c-0.3,3,1,3.5,2.4,5.8
			c1.1,1.8,2.8,6-1.1,4c-2.9,2.6,1.3,3.2,1.3,5.5c0.3-0.1,0.6-0.2,0.9-0.2c0.9,2,0.5,3.9,0.4,6.1c0.1-0.4,0.3-0.8,0.4-1.2
			c0.1,0.1,0.5,0.5,0.6,0.5c0,4.4,1.3,6.4,3.2,10.3c2.3,4.7,0.9,6.4-0.3,11.1c-0.1,0.2-0.7,0-0.9,0.1c0,0.4,0,0.9-0.1,1.2
			c-5.9-4.6-0.5,10.6-4.1,11.8c-1.9-2.8-0.2-7.3-1.4-10.4c-1-2.5-3-6.1-5.2-7.9c-1.8,1.5-10.1,11-4.4,12.5
			c-1.9,3.6,4.5,6.9,2.4,11.7c-1.5,3.4-9.1,9.1-8.1,1.1c1.3-0.5,2.1-3.1,0.3-3.3c-0.2,0-2.8,2.4-3.3,2.7c-2.2,1.4-8.2,1.7-7.6-2.6
			c-4.5-0.9-5.4-2-7.8-5.7c-0.8-1.3-2.7-2.2-2.9-3.9c0-0.1,1.1-1.2,0.9-2.3c-0.1-1.2-0.9-2.2-1.9-2.7c-0.1-1.9,1.4-3.2,2.6-4.4
			c0.6,0.7,1.2,0.5,1.6,1.5c1.2-1.2-4.6-9.5-6.9-10.5c-1.1-0.5-2.7,0.4-3.9,0c-1.1-0.4-1-2.8-2.7-2.2c-2.1,0.7-1,6.1,0,7.1
			c-2.3,0.3-1-1.8-2.3-2.3c-1.1-0.4-2.3,0-3.5,0.3c0.5-0.5,0.8-1.7,1.3-2.2c-2.9-0.2-5.3-0.1-4.2,3.3c-0.3-1-1.9-1.9-3.3-0.8
			c1.1-7.3-5.3-2.5-6.9,1c-0.8,1.7-3.9,12.7-7.1,6.7c0.2,0.1,0.5,0.3,0.6,0.5"/>
		<path class="st5" d="M86.1,262.1c-0.2,5.1,1.3,4.3,5.5,5.2c0.7-2,2.4-3.8,3.9-5.3c-1.9-3.8-10.1-0.9-9.1,2.7"/>
	</g>
	<g>
		<path class="st6" d="M47.5,110.3c-1.3,0.2-1.6-1.6-1.6-3.3c-0.1-2.7,0.7-2.1-0.7-4.5c-0.9-1.5-6.8-8.4-1.9-8.7
			c0.9-2.8-1.4-2.4-2.5-4.2c-0.9-1.4-1.3-4.5-1.1-6.1c1.1,1.7,5.9,2.5,7.5,0.8c2.2-2.3-0.8-6.2-3.2-7.2c1.7-4,3.2-7,4-11.2
			c0.9-5.1-0.3-7.6-2.3-12.3c1.5-1.2,2.7-2.3,3.8-3.7c1.5-1.9,1.4-3.7,2.3-5.4c1.1-2.2,2.8-3.3,5.6-3.3c2.7,0,4.3,1.7,6.2,2.6
			c0.3,0.1,2.6,0.5,3.2,0.7c0.9,0.3,1.3,1.5,2.6,1.6c0-0.4,0.1-0.8,0.1-1.2c3.3,1.2,4.3,0.6,6.2-1.7c1.3-1.7,2.2-4.4,4.5-1.3
			S80,46.7,78.6,49c-1.1,2-1.4,4.4-1.3,7.2c2.5-0.2,3,4.6,4.6,6.1c3-2.3,3.5,5.1,3.1,6.9c-1,4.7-3.6,9.3-3.2,14.4c0,0,0.5,0,0.6,0.1
			c0.7,2.4-1,3.6-2.2,5.3c-0.1-1.5,0.3-3.1,0.5-4.6c-2.7,2.8-6.9,6.9-7.9,10.5c-0.3,1,0.4,1.8,0.1,2.6c-0.3,0.9-1.5,1.4-1.9,2.4
			c-1,2.4-0.7,4.4,0,6.8c3.4-0.1,1.8,6.8,4.8,7.3c-1.3,2.1-0.5,3.6,0.7,5.8c0.6,1.1,1.3,3.6,1.9,4.6c1,1.5,4.2,2.4,6,1.3
			c2.1-1.2,1.4-3.4,3.3-5.2c1.4-1.3,3.6-2.5,5.2-2.4c3,0.1,2.5,2.1,4.2,3.6s3,0.8,3.9,3.3c0.5,1.5,0.9,3.8,1.3,5.6
			c2.2-0.4,2.9-2.8,1.6-4.5c0.5-0.5,1.7-1.2,2.3-1.4c0.4,0.6,1.1,2.2,1.7,2.5c1.5,0.8,1.8-0.3,3.5,0.1c2.5,0.6,4.1,2.4,4.2,4.8
			c-1.7,0.1-4-1.5-4.6,0.7c-0.2,0.9,1.8,4.8,1.9,6.2c0.2,1.7-0.4,3.7,0.7,4.7c1.3,1.2,3,0.2,4.3,1.3c0.3-0.3,1-0.7,1.3-1.1
			c1.5,0.4,3.5,1,2.6,2.9c0.4,0.2,0.7,0.4,1,0.7c-2.5,1.6,0.6,5.3-1.6,6.6c-1.1,0.7-4.6-2.4-5.7-3c0.8-1.1,1.8-1.9,2-3.2
			c-1.8-0.8-2.7,0.7-4.3,0.4c-2-0.4-3.2-2.4-3.9-4c-3.4-0.9-3.1-5.7-6.1-5c0.6-4.5-2.6-3.6-5.4-6.2c-1.7-1.6-3.5-6.6-6.8-4.8
			c0.6,4.1,5.1,8.7,3.2,12.7c-3.7-2.4-5.2-8.1-8.5-10.4c-1.9-1.3-8-3.8-10.4-2.7c-2.6,1.2-0.6,3.3-2,4.9c-1.9,2.2-3.4,0-4.8-1
			c-2.6-1.9-0.8-1.3-4.1-0.1c-3.2,1.1-3.8,0.3-1.9-2.8c-0.3-0.4-0.9-0.9-1.3-1.1c-1.3,0.7-2,2.1-2,3.6c-0.4,0-0.8,0.1-1.2,0
			c-1.1-2.2-1.4-6.6-1.1-9.1c0.6-4.3,3.5-6.3,6.2-8.6c-2.2-1.7-4.1-3.4-7.1-2.9c-0.4,1.8,0.9,3,0.6,4.5c-0.3,1.7-2.1,1.8-1.7,3.9
			c-0.7,0.4-1.5,0.4-2.2,0.3c-0.4-2.8-1.9-11.1-5.6-8.6c0.9-1.2,0.1-1.5-0.3-2.8"/>
		<path class="st6" d="M4,227.4c-0.1,0.1,0.5,0.5-0.3,0.3c1.8-2.1,6.4-9.4,9.4-9.1c0.6-1.5,1.2-2.9,1.1-4.5c3.5-1.1,3.8-1.8,5.8-4.9
			c1.2-2,3.4-6,5.4-7.2c2.8-1.7,3.7,0.3,4.8-3.4c0.8-2.6,0.4-4.2,3.2-5.5c0.8,1.1,0.9,0.5,2,0.9c0.8-2.8,2.2-6.7-0.2-9.1
			c1.1,0.3,2.5,0.8,3.8,0.5c-1.5-2.3-1.1-7.2-0.9-10c0.7,0.2,1.6,0.7,2.2,1.3c0,1.6-0.1,5.2,0.7,6.5c0.9,1.4,2.6,0.8,4,2
			c1.7,1.6,1.7,5.9,0.1,7.5c-0.9,0.9-2.4,0.7-3.4,1.2c-1.5,0.8-1.5,1.2-2.9,2.6c-2.2,2.2-5.4,3.1-7.3,5.8c-1.7,2.4-1.4,5.7-3.3,8.2
			c-2,2.5-5.7,3.3-7.5,6c-0.8,1.3-0.7,3-2,4.3s-3,1.6-4.6,2.6c-2.8,1.8-4.5,3-7.8,3.9c-0.5,0.1-2.9,0.1-1.6,0.3"/>
		<path class="st6" d="M54.7,136.1c-0.4,1.2-0.1,2.8,1.6,2.4c0.1,3.1,2.6,3.8,4.3,6.1c1.1,1.4,1.1,1.2,1.6,2.9
			c0.4,1.2,0,2.3,0.7,3.5c0.7,1.3,1.6,0.9,2.2,2.7c0.9,2.7-0.2,3,2.7,5c4.4,3,6.4-0.6,7.2-5c4.6,0.1-0.3-5.7-0.4-7
			c-0.2-2.3,1.8-3.1,0.3-5.1c-0.7-0.9-3.4-2.2-4.4-2.7c-2.7-1.3-6-1.7-8.9-2.3c-1.9-0.4-6-0.3-6.9-1"/>
		<path class="st6" d="M118.8,133.2c0.7,3.9,6.1,0.9,6.9-1.7c0.9-3.1-2.4-5.9-4.3-7.9c-1.8,3.2-0.9,7.5-2.5,10.9"/>
		<path class="st6" d="M80.2,114.8c1.3-0.4,4.5-7.2,3.9-8.5s-3.5-0.7-4.3,0c-2.6,2.5,1.9,7.6-0.6,9.2"/>
		<path class="st6" d="M44.9,158.4c-0.4,3.4,0.6,4.7,3.6,5.5c1.6,0.4,4.3,1.1,5.3-0.5c1.6-2.6-1.5-2.9-3.1-3.6
			c-2.2-0.9-2.3-1.2-4.2-3c-1.3,0.4-2.2,1.6-2.6,2.6"/>
		<path class="st6" d="M45.5,167.5c1.2,1.1,3.5,0.9,4,2.5c0.5,1.8-0.7,2.4-2,2.5c-3.7,0.2-4.9-5.7-1-4.3"/>
		<path class="st6" d="M80.9,134.1c-0.1,2.1-2,3-0.6,4.8c0.4,0.6,3.4,1.5,4.2,1.1c4.2-2.2-0.9-5.5-3.6-5.3"/>
		<path class="st6" d="M106.4,163.6c-0.8-1-1.6-2-1.9-3.2c1.1-0.5,2.1-1.2,3.2-1.8c-0.4-2.1-4.4-5.3-0.7-5.8
			c2.4-0.4,1.9,1.8,3.3,2.6c0.8,0.5,2.2,0.1,3,0.7c3.6,2.5,5.2,6.7,8.4,9.7c-4,4-8.6-4.4-10.7-6.9c-1.7,1.2-2.8,3.7-4.6,4.3"/>
	</g>
	<g>
		<path class="st7" d="M81.9,167.2c1.2-5.5,8.6-0.4,11,1c-0.7,0.3-1.1,1-1.7,1.3c4.5,0.9,7.7-0.7,10.1,4.2c1.2-1.7,1.9-3.6,3.9-4.8
			c4.1,2.3-0.1,4.9-1.6,6.6c-1.7,1.9-1.6,5.3-3.1,7.4c-2.9,3.9-9.4,4.1-13.3,7c-0.3-5.4,0.5-10.6,0.7-15.8c0.1-4-2-4.8-5.6-5.9
			c-0.2-0.9,0.2-1.5,0.3-1.6"/>
		<path class="st7" d="M100.5,198.9c-0.8,3.1-7.4,1.4-5.2,7.1c1.3,3.4,5.6,4.6,9.1,4.3c0.1,2.7-0.7,4.3,2,5.2
			c2.6,0.9,4.3-0.6,4.3-3.2c-5.1-1.4-5.1-17.7-2.6-21c1.4-1.9,5.4-1,5.2-4.9c-0.2-4.2-4-3.5-5.3-0.7c-2.9-5.7-5.5,4.5-5.4,6.9
			c0.1,2.2,1,3.4-0.5,5.5c-1.3,1.9-3.6,2.1-4.5,4.3"/>
		<path class="st7" d="M124.7,153.8c0.1,1.5-0.3,4.9,1,6.2c0.5,0.6,3.9,1.2,5,2c2.6,2,5.4,4.8,7,7.5c-1.3,0.9-2,2.6-3.1,3.9
			c4-2.6,3.7,4.3,6.1,5.7c1.5,0.9,3.9-0.2,5.6,0c1.1,0.1,2.5,1,3.6,1.2c1.2-2-1.8-3.8-2.5-5.9c-1.1-3.2-0.6-7-1-10.4
			c-0.6-5.6-4-6.5-6.3-11.1c-1.8,1.2-7,0.7-9.4,0.3c-2.1-0.4-1.1-1.1-3.7-0.6c-1.1,0.2-2.3,0.9-3.2,1.5c0.3,0.2,1.7,0.9,0.9,0.7"/>
		<path class="st7" d="M120.1,202.5c1.9,2.3,1.9,3.4,0.8,6.3c4.9,0.3,16-6.1,9.7-11.8c-3.9-3.6-9.1,2.6-10.5,6.1c0-0.4,0-0.8,0-1.2"
			/>
		<path class="st7" d="M126.7,178.3c1.3-1.4,5.7-1.3,7.9-0.4c3.2,1.4,2.3,3.6,3.7,6.2c1.2,2.5,5.1,6,5.9,9.2c1.2,5-3.4,3.9-5.5,1.3
			c-0.1,1.2-0.4,2.5-0.8,3.6c-4.2-3.8-2.7-10.5-3.8-15.6c-2-0.2-3.5,1.7-5.5,1.8c0-2.8-0.9-5-1.7-7.5"/>
		<path class="st7" d="M124.7,170.5c-0.5,4.8,6.3,3.6,7.7,0.3c-2.7-0.9-5.3,0.5-8.1,0.3c-0.7,0.4,0.1,0.1,0.4,0"/>
		<path class="st7" d="M113.6,206.5c0.3-0.3-0.8,0.8-1,0.9c2.9,0.3,2.6-4.6,2.9-6.5c0.6-3.3,2.3-3.6,4-6.5c2.1-3.7,3-11,1.9-15
			c-2.8,0-1.8,6.8-3.2,8.8c-0.7,1-1.8,0.9-2.5,2.2s-0.3,3.2-0.5,4.7c-0.5,2.6-2.1,4.8-3,7.2c-1.1,2.9,0.8,4.4,0.7,6.6"/>
	</g>
</g>
<g>
	<g>
		<path class="st6" d="M206.7,170.8h-11.2V89.3h16.9v31c2.1-2.1,4.5-3.7,7.1-5c2.7-1.3,5.8-1.9,9.4-1.9l0,0c2.9,0,5.7,0.6,8.2,1.9
			s4.7,3.1,6.5,5.6s3.3,5.5,4.3,9s1.5,7.6,1.5,12.1l0,0c0,4.2-0.6,8.1-1.8,11.7c-1.2,3.6-2.8,6.7-4.9,9.4c-2.1,2.6-4.7,4.7-7.6,6.2
			c-3,1.5-6.2,2.2-9.8,2.2l0,0c-1.7,0-3.2-0.2-4.5-0.5s-2.5-0.8-3.6-1.4s-2.1-1.3-3.1-2.1c-0.9-0.8-1.8-1.8-2.7-2.7l0,0l-0.6,2.8
			c-0.3,1.2-0.7,2-1.4,2.4C208.7,170.6,207.8,170.8,206.7,170.8L206.7,170.8z M223.1,126.2L223.1,126.2c-1.2,0-2.4,0.1-3.4,0.4
			s-1.9,0.6-2.8,1c-0.8,0.4-1.6,1-2.4,1.6c-0.7,0.7-1.5,1.4-2.2,2.3l0,0v23.9c1.3,1.4,2.6,2.4,4.1,3s3.1,0.9,4.7,0.9l0,0
			c1.5,0,3-0.3,4.3-0.9s2.4-1.6,3.4-3s1.7-3.1,2.3-5.3c0.5-2.2,0.8-4.8,0.8-7.9l0,0c0-3-0.2-5.5-0.6-7.5s-1-3.7-1.8-4.9
			c-0.8-1.3-1.7-2.2-2.8-2.7C225.6,126.5,224.4,126.2,223.1,126.2z M305.4,170.8h-7.7c-1.6,0-2.8-0.2-3.6-0.6
			c-0.8-0.4-1.5-1.3-2-2.7l0,0l-1.2-3.1c-1.4,1.2-2.8,2.2-4.1,3.1s-2.7,1.7-4.1,2.3c-1.4,0.6-2.9,1.1-4.5,1.4
			c-1.6,0.3-3.3,0.5-5.2,0.5l0,0c-2.6,0-4.9-0.3-7-1c-2.1-0.7-3.9-1.6-5.4-2.9s-2.6-2.9-3.4-4.9c-0.8-1.9-1.2-4.2-1.2-6.7l0,0
			c0-2,0.5-4,1.5-6.1s2.8-4,5.3-5.7s5.9-3.2,10.1-4.3c4.2-1.2,9.6-1.8,16.1-2l0,0v-2.4c0-3.3-0.7-5.7-2-7.2
			c-1.4-1.5-3.3-2.2-5.8-2.2l0,0c-2,0-3.6,0.2-4.9,0.7c-1.3,0.4-2.4,0.9-3.4,1.5c-1,0.5-2,1-2.9,1.5c-0.9,0.4-2.1,0.6-3.4,0.6l0,0
			c-1.2,0-2.1-0.3-2.9-0.9s-1.5-1.3-1.9-2.1l0,0l-3.1-5.3c3.4-3,7.2-5.2,11.4-6.7c4.2-1.5,8.6-2.2,13.4-2.2l0,0
			c3.4,0,6.5,0.5,9.2,1.6s5.1,2.7,7,4.6c1.9,2,3.4,4.3,4.4,7s1.5,5.7,1.5,8.9l0,0v35.3H305.4z M278.2,160.5L278.2,160.5
			c2.2,0,4.1-0.4,5.7-1.1c1.6-0.8,3.3-2,5-3.7l0,0v-7.9c-3.4,0.1-6.1,0.4-8.3,0.9c-2.2,0.4-3.9,1-5.2,1.6c-1.3,0.6-2.2,1.4-2.6,2.2
			c-0.5,0.8-0.7,1.8-0.7,2.7l0,0c0,1.9,0.5,3.3,1.6,4C274.7,160.2,276.2,160.5,278.2,160.5z M368.4,114.4l-30.1,71.1
			c-0.5,1.1-1.1,1.9-1.9,2.5c-0.7,0.5-1.9,0.8-3.5,0.8l0,0h-12.6l10.9-22.9l-22.5-51.5h14.9c1.3,0,2.3,0.3,3.1,0.9
			c0.7,0.6,1.2,1.3,1.5,2.1l0,0l9.3,24.3c0.9,2.3,1.6,4.5,2.1,6.8l0,0c0.4-1.2,0.8-2.3,1.2-3.4s0.8-2.3,1.2-3.4l0,0l8.4-24.2
			c0.3-0.8,0.8-1.5,1.7-2.1c0.8-0.6,1.8-0.9,2.7-0.9l0,0L368.4,114.4L368.4,114.4z M422.1,170.8h-7.7c-1.6,0-2.8-0.2-3.6-0.6
			s-1.5-1.3-2.1-2.7l0,0l-1.2-3.1c-1.4,1.2-2.8,2.2-4.1,3.1s-2.7,1.7-4.1,2.3c-1.4,0.6-2.9,1.1-4.5,1.4s-3.3,0.5-5.2,0.5l0,0
			c-2.6,0-4.9-0.3-7-1s-3.9-1.6-5.4-2.9s-2.6-2.9-3.4-4.9c-0.8-1.9-1.2-4.2-1.2-6.7l0,0c0-2,0.5-4,1.5-6.1s2.8-4,5.3-5.7
			s5.9-3.2,10.1-4.3c4.2-1.2,9.6-1.8,16.1-2l0,0v-2.4c0-3.3-0.7-5.7-2.1-7.2c-1.4-1.5-3.3-2.2-5.8-2.2l0,0c-2,0-3.6,0.2-4.9,0.7
			c-1.3,0.4-2.4,0.9-3.4,1.5c-1,0.5-2,1-2.9,1.5c-0.9,0.4-2.1,0.6-3.4,0.6l0,0c-1.2,0-2.1-0.3-3-0.9c-0.8-0.6-1.4-1.3-1.9-2.1l0,0
			l-3.1-5.3c3.4-3,7.2-5.2,11.4-6.7s8.6-2.2,13.4-2.2l0,0c3.4,0,6.5,0.5,9.2,1.6s5.1,2.7,7,4.6c1.9,2,3.4,4.3,4.4,7s1.5,5.7,1.5,8.9
			l0,0v35.3H422.1z M394.9,160.5L394.9,160.5c2.2,0,4.1-0.4,5.7-1.1c1.6-0.8,3.3-2,5-3.7l0,0v-7.9c-3.4,0.1-6.1,0.4-8.3,0.9
			c-2.2,0.4-3.9,1-5.2,1.6s-2.2,1.4-2.6,2.2s-0.7,1.8-0.7,2.7l0,0c0,1.9,0.5,3.3,1.6,4C391.4,160.2,392.9,160.5,394.9,160.5z
			 M450.9,170.8H434v-56.4h10c0.8,0,1.5,0.1,2.1,0.2c0.5,0.2,1,0.4,1.4,0.7c0.4,0.3,0.7,0.7,0.9,1.2s0.4,1.1,0.5,1.9l0,0l0.9,5.3
			c2.1-3.2,4.4-5.7,7-7.6c2.6-1.8,5.4-2.8,8.4-2.8l0,0c2.6,0,4.7,0.6,6.2,1.9l0,0l-2.2,12.4c-0.1,0.8-0.4,1.3-0.9,1.6
			c-0.5,0.3-1,0.5-1.8,0.5l0,0c-0.6,0-1.3-0.1-2.2-0.2c-0.8-0.2-1.9-0.3-3.1-0.3l0,0c-4.4,0-7.9,2.4-10.4,7.1l0,0L450.9,170.8
			L450.9,170.8z M479.5,114.4h16.9v56.4h-16.9V114.4z M498.4,98.9L498.4,98.9c0,1.4-0.3,2.6-0.8,3.8c-0.5,1.2-1.3,2.2-2.2,3.1
			s-2,1.6-3.3,2.1s-2.6,0.8-4,0.8l0,0c-1.4,0-2.7-0.3-3.9-0.8s-2.3-1.2-3.2-2.1s-1.6-1.9-2.2-3.1c-0.5-1.2-0.8-2.4-0.8-3.8l0,0
			c0-1.4,0.3-2.7,0.8-3.9c0.5-1.2,1.3-2.3,2.2-3.2c0.9-0.9,2-1.6,3.2-2.1s2.5-0.8,3.9-0.8l0,0c1.4,0,2.7,0.3,4,0.8s2.4,1.2,3.3,2.1
			c0.9,0.9,1.7,2,2.2,3.2C498.1,96.3,498.4,97.6,498.4,98.9z M526.9,170.8H510v-56.4h10.5c1,0,1.9,0.2,2.6,0.7
			c0.7,0.5,1.2,1.2,1.5,2.1l0,0l1,3.3c1.1-1,2.2-2,3.4-2.8c1.2-0.9,2.4-1.6,3.7-2.2s2.8-1.1,4.3-1.4c1.5-0.4,3.2-0.5,5-0.5l0,0
			c3.1,0,5.8,0.5,8.2,1.6s4.4,2.5,6,4.5c1.6,1.9,2.9,4.2,3.7,6.8c0.8,2.6,1.2,5.5,1.2,8.6l0,0V171h-16.9v-35.9
			c0-2.7-0.6-4.9-1.9-6.4c-1.3-1.5-3.1-2.3-5.6-2.3l0,0c-1.8,0-3.6,0.4-5.2,1.2c-1.6,0.8-3.2,1.9-4.7,3.2l0,0v40H526.9z"/>
		<g>
			<path class="st7" d="M569.9,162.3L569.9,162.3c0-1.3,0.2-2.5,0.7-3.6s1.2-2.1,2-2.9s1.8-1.5,3-2s2.5-0.7,3.8-0.7l0,0
				c1.3,0,2.6,0.2,3.8,0.7s2.2,1.2,3,2c0.9,0.8,1.6,1.8,2.1,2.9s0.7,2.4,0.7,3.6l0,0c0,1.3-0.2,2.5-0.7,3.7s-1.2,2.1-2.1,3
				c-0.9,0.8-1.9,1.5-3,2c-1.2,0.5-2.4,0.7-3.8,0.7l0,0c-1.4,0-2.6-0.2-3.8-0.7s-2.2-1.1-3-2c-0.9-0.8-1.5-1.8-2-3
				C570.1,164.8,569.9,163.6,569.9,162.3z"/>
			<path class="st7" d="M659.3,132.1h-7.6c-0.2-0.7-0.3-1.4-0.5-2.1c-1-3.6-2.5-6.6-4.3-9.1s-4-4.4-6.5-5.7
				c-2.5-1.3-5.2-1.9-8.2-1.9c-2,0-3.8,0.2-5.4,0.6c-1.6,0.4-3.2,1-4.6,1.7c-1.4,0.7-2.8,1.5-4,2.5s-2.4,2.1-3.5,3.3l-1.2-4.1
				c-0.3-0.9-0.8-1.7-1.5-2.1c-0.7-0.5-1.6-0.7-2.7-0.7h-10.4v17.7h-9.8v8.1h9.8v3.4h-9.8v8.1h9.8v36.9h16.8V167
				c1.6,1.4,3.5,2.5,5.5,3.4c2,0.8,4.4,1.3,7.4,1.3c3.6,0,6.9-0.7,9.8-2.2c3-1.5,5.5-3.6,7.6-6.2c2.1-2.7,3.8-5.8,5-9.4
				c0.2-0.8,0.5-1.5,0.6-2.3h7.7v-8.1h-6.6c0-0.5,0-0.9,0-1.4c0-0.7,0-1.4,0-2h6.6V132.1z M615.7,131.5c0.7-0.9,1.5-1.7,2.2-2.3
				c0.7-0.7,1.5-1.2,2.4-1.7s1.8-0.8,2.8-1s2.1-0.4,3.3-0.4c1.3,0,2.6,0.3,3.7,0.8c1.1,0.5,2,1.5,2.8,2.7c0.4,0.7,0.8,1.5,1.1,2.4
				h-18.3V131.5z M632.2,155.4c-1,1.4-2.1,2.4-3.4,3c-1.3,0.6-2.8,0.9-4.3,0.9c-1.6,0-3.2-0.3-4.7-0.8c-1.5-0.6-2.9-1.6-4.1-3v-3.9
				H634C633.6,153.1,633,154.4,632.2,155.4z M635.3,142.2c0,0.5,0,0.9,0,1.4h-19.6v-3.4h19.6C635.3,140.8,635.3,141.5,635.3,142.2z"
				/>
			<path class="st7" d="M678.7,170.8h-16.9V89.3h16.9v30c2-1.7,4.2-3.1,6.6-4.2c2.4-1.1,5.2-1.6,8.5-1.6l0,0c3.1,0,5.8,0.5,8.2,1.6
				s4.4,2.5,6,4.5c1.6,1.9,2.9,4.2,3.7,6.8c0.8,2.6,1.3,5.5,1.3,8.6l0,0v35.9h-16.9V135c0-2.7-0.6-4.9-1.9-6.4
				c-1.3-1.5-3.1-2.3-5.6-2.3l0,0c-1.9,0-3.6,0.4-5.2,1.2c-1.6,0.8-3.2,1.9-4.7,3.2l0,0L678.7,170.8L678.7,170.8z"/>
		</g>
	</g>
	<g transform="matrix(1,0,0,1,52.42499542236328,39.90999984741211)">
		<g transform="scale(1, 1)">
			<g transform="scale(1)">
				<path class="st5" d="M297.3,166.9V190h2.9v-9.2h4.1c1.3,0,2.4-0.1,3.5-0.4c1.1-0.3,2-0.7,2.7-1.3c0.8-0.6,1.4-1.3,1.8-2.2
					s0.6-1.9,0.6-3.2s-0.2-2.3-0.6-3.2c-0.4-0.9-1-1.6-1.7-2.1s-1.6-0.9-2.7-1.1s-2.2-0.4-3.5-0.4L297.3,166.9L297.3,166.9z
					 M304,178.5h-3.8v-9.2h3.8c2,0,3.5,0.3,4.5,1c1,0.6,1.5,1.8,1.5,3.5c0,1.6-0.5,2.9-1.5,3.6C307.5,178.1,306,178.5,304,178.5z
					 M325.7,180.7h-7l1.1-3.5c0.4-1.3,0.8-2.6,1.2-3.9c0.4-1.3,0.7-2.6,1.1-3.9h0.1c0.4,1.4,0.7,2.7,1.1,3.9
					c0.4,1.3,0.8,2.6,1.2,3.9L325.7,180.7z M326.4,183l2.2,7.1h3.1l-7.8-23.1h-3.3l-7.8,23.1h3l2.2-7.1H326.4z M338,177.9v-8.6h3.9
					c1.8,0,3.2,0.3,4.1,0.9c1,0.6,1.4,1.7,1.4,3.2s-0.5,2.6-1.4,3.4c-1,0.7-2.4,1.1-4.1,1.1H338z M347.7,190.1h3.3l-5.9-10.1
					c1.6-0.4,2.8-1.1,3.8-2.2c0.9-1.1,1.4-2.5,1.4-4.3c0-1.2-0.2-2.2-0.6-3.1c-0.4-0.8-1-1.5-1.7-2s-1.6-0.9-2.6-1.1
					s-2.1-0.3-3.3-0.3h-7.2v23.1h2.9v-9.8h4.2L347.7,190.1z M365,180.7h-6.9l1.1-3.5c0.4-1.3,0.8-2.6,1.2-3.9
					c0.4-1.3,0.7-2.6,1.1-3.9h0.1c0.4,1.4,0.7,2.7,1.1,3.9c0.4,1.3,0.8,2.6,1.2,3.9L365,180.7z M365.8,183l2.2,7.1h3.1l-7.8-23.1
					H360l-7.8,23.1h3l2.2-7.1H365.8z M381.6,185l-1.8,2.1c1,1.1,2.2,1.9,3.6,2.5c1.4,0.6,2.9,0.9,4.5,0.9c1.2,0,2.3-0.1,3.3-0.5
					s1.8-0.8,2.5-1.4c0.7-0.6,1.2-1.3,1.6-2.1c0.4-0.8,0.5-1.7,0.5-2.6c0-0.9-0.1-1.6-0.4-2.2c-0.3-0.6-0.6-1.2-1-1.7
					s-0.9-0.9-1.5-1.3c-0.6-0.4-1.2-0.7-1.9-1l-3.3-1.4c-0.5-0.2-0.9-0.4-1.4-0.6s-0.9-0.5-1.2-0.8c-0.4-0.3-0.7-0.6-0.9-1
					s-0.3-0.9-0.3-1.4c0-1.1,0.4-1.9,1.2-2.5s1.8-0.9,3.1-0.9c1.1,0,2.1,0.2,2.9,0.6c0.9,0.4,1.6,0.9,2.4,1.6l1.6-1.9
					c-0.8-0.9-1.8-1.6-3-2.1s-2.4-0.8-3.9-0.8c-1.1,0-2,0.2-2.9,0.5s-1.6,0.7-2.3,1.3c-0.6,0.6-1.1,1.2-1.5,1.9
					c-0.4,0.8-0.6,1.6-0.6,2.4c0,0.9,0.1,1.6,0.4,2.2c0.3,0.6,0.6,1.2,1.1,1.7s0.9,0.9,1.5,1.2s1.1,0.6,1.7,0.9l3.3,1.4
					c0.5,0.3,1,0.5,1.5,0.7s0.9,0.5,1.2,0.8s0.6,0.6,0.8,1.1c0.2,0.4,0.3,0.9,0.3,1.5c0,1.1-0.4,2.1-1.3,2.7c-0.9,0.7-2,1.1-3.6,1.1
					c-1.2,0-2.4-0.3-3.5-0.8C383.4,186.6,382.4,185.9,381.6,185z M410.2,180.7h-6.9l1.1-3.5c0.4-1.3,0.8-2.6,1.2-3.9
					c0.4-1.3,0.7-2.6,1.1-3.9h0.1c0.4,1.4,0.7,2.7,1.1,3.9c0.4,1.3,0.8,2.6,1.2,3.9L410.2,180.7z M411,183l2.2,7.1h3.1l-7.8-23.1
					h-3.3l-7.8,23.1h3l2.2-7.1H411z M426.7,166.9V190h2.7v-12.7c0-1-0.1-2.2-0.1-3.4c-0.1-1.2-0.2-2.4-0.2-3.4h0.1l1.9,5.1l4.5,12.1
					h1.7l4.4-12.1l1.9-5.1h0.1c-0.1,1-0.2,2.2-0.3,3.4c-0.1,1.3-0.1,2.4-0.1,3.4V190h2.8v-23.1h-3.5l-4.4,12.4l-1.6,4.7h-0.1
					l-1.7-4.7l-4.5-12.4L426.7,166.9L426.7,166.9z M462.2,180.7h-7l1.1-3.5c0.4-1.3,0.8-2.6,1.2-3.9c0.4-1.3,0.7-2.6,1.1-3.9h0.1
					c0.4,1.4,0.8,2.7,1.1,3.9c0.4,1.3,0.8,2.6,1.2,3.9L462.2,180.7z M463,183l2.2,7.1h3.1l-7.8-23.1h-3.3l-7.9,23.1h3l2.2-7.1H463z
					 M471.6,185l-1.8,2.1c1,1.1,2.2,1.9,3.6,2.5c1.4,0.6,2.9,0.9,4.5,0.9c1.2,0,2.3-0.1,3.3-0.5c0.9-0.4,1.8-0.8,2.5-1.4
					c0.7-0.6,1.2-1.3,1.6-2.1c0.4-0.8,0.6-1.7,0.6-2.6c0-0.9-0.1-1.6-0.4-2.2c-0.2-0.6-0.6-1.2-1-1.7s-0.9-0.9-1.5-1.3
					c-0.6-0.4-1.2-0.7-1.9-1l-3.3-1.4c-0.5-0.2-0.9-0.4-1.4-0.6s-0.9-0.5-1.2-0.8c-0.4-0.3-0.7-0.6-0.9-1s-0.4-0.9-0.4-1.4
					c0-1.1,0.4-1.9,1.2-2.5s1.9-0.9,3.1-0.9c1.1,0,2,0.2,2.9,0.6s1.6,0.9,2.3,1.6l1.6-1.9c-0.8-0.9-1.8-1.6-3-2.1s-2.4-0.8-3.8-0.8
					c-1.1,0-2,0.2-2.9,0.5s-1.6,0.7-2.3,1.3c-0.6,0.6-1.2,1.2-1.5,1.9c-0.4,0.8-0.6,1.6-0.6,2.4c0,0.9,0.1,1.6,0.4,2.2
					c0.3,0.6,0.6,1.2,1.1,1.7c0.4,0.5,0.9,0.9,1.5,1.2s1.1,0.6,1.6,0.9l3.3,1.4c0.5,0.3,1,0.5,1.5,0.7s0.9,0.5,1.2,0.8
					s0.6,0.6,0.8,1.1c0.2,0.4,0.3,0.9,0.3,1.5c0,1.1-0.4,2.1-1.3,2.7c-0.8,0.7-2,1.1-3.6,1.1c-1.2,0-2.4-0.3-3.5-0.8
					C473.4,186.6,472.5,185.9,471.6,185z M500.2,180.7h-6.9l1.1-3.5c0.4-1.3,0.8-2.6,1.2-3.9c0.4-1.3,0.7-2.6,1.1-3.9h0.1
					c0.4,1.4,0.7,2.7,1.1,3.9c0.4,1.3,0.8,2.6,1.2,3.9L500.2,180.7z M501,183l2.2,7.1h3.1l-7.9-23.1h-3.3l-7.8,23.1h3l2.2-7.1H501z"
					/>
			</g>
		</g>
	</g>
</g>
</svg>
